<svg version="1.1" id="Calque_1" xmlns="http://www.w3.org/2000/svg" xmlns:xlink="http://www.w3.org/1999/xlink" x="0" y="0" viewBox="0 0 800.2 498.1" style="enable-background:new 0 0 800.2 498.1" xml:space="preserve"><style>.st1,.st2{stroke:#1a2e35;stroke-linecap:round;stroke-linejoin:round}.st1{fill:none;stroke-miterlimit:10}.st2{fill:#692bef}.st2,.st3,.st4{stroke-miterlimit:10}.st3{fill:#fff;stroke:#1a2e35;stroke-linecap:round;stroke-linejoin:round}.st4{stroke-width:2}.st4,.st5,.st8,.st9{fill:none;stroke:#1a2e35;stroke-linecap:round;stroke-linejoin:round}.st8,.st9{fill:#1a2e35;stroke-miterlimit:10}.st9{fill:none;stroke:#fff}.st10{fill:#1a2e35}.st18,.st19{fill:none;stroke:#1a2e35;stroke-linecap:round;stroke-linejoin:round;stroke-dasharray:.9906,2.9717}.st19{stroke-dasharray:1.0102,3.0307}</style><path style="fill:#d8ceea" d="M0 .5h800.2v497.6H0z"/><path class="st1" d="M160.7 453.9h478.8M431.9 89.6v-18l-13.5-1.2c-.8-2.8-1.9-5.5-3.3-8.1l8.7-10.3-12.7-12.7-10.3 8.7c-2.5-1.4-5.2-2.5-8.1-3.3l-1.2-13.5h-18l-1.2 13.5c-2.8.8-5.5 1.9-8.1 3.3l-10.3-8.7L341.2 52l8.7 10.3c-1.4 2.5-2.5 5.2-3.3 8.1l-13.5 1.2v18l13.5 1.2c.8 2.8 1.9 5.5 3.3 8.1l-8.7 10.3 12.7 12.7 10.3-8.7c2.5 1.4 5.2 2.5 8.1 3.3l1.2 13.5h18l1.2-13.5c2.8-.8 5.5-1.9 8.1-3.3l10.3 8.7 12.7-12.7-8.7-10.3c1.4-2.5 2.5-5.2 3.3-8.1l13.5-1.2zm-49.3 11.9c-11.5 0-20.9-9.3-20.9-20.9 0-11.5 9.3-20.9 20.9-20.9 11.5 0 20.9 9.3 20.9 20.9 0 11.5-9.4 20.9-20.9 20.9zM625.1 265.2v-8.6l-6.5-.6c-.4-1.4-.9-2.7-1.6-3.9l4.2-5-6.1-6.1-5 4.2c-1.2-.7-2.5-1.2-3.9-1.6l-.6-6.5H597l-.6 6.5c-1.4.4-2.7.9-3.9 1.6l-5-4.2-6.1 6.1 4.2 5c-.7 1.2-1.2 2.5-1.6 3.9l-6.5.6v8.6l6.5.6c.4 1.4.9 2.7 1.6 3.9l-4.2 5 6.1 6.1 5-4.2c1.2.7 2.5 1.2 3.9 1.6l.6 6.5h8.6l.6-6.5c1.4-.4 2.7-.9 3.9-1.6l5 4.2 6.1-6.1-4.2-5c.7-1.2 1.2-2.5 1.6-3.9l6.5-.6zm-23.7 5.8c-5.5 0-10-4.5-10-10s4.5-10 10-10 10 4.5 10 10-4.4 10-10 10zM618.6 108.4c.4-1.7.6-3.5.6-5.3 0-13-10.5-23.5-23.5-23.5-2.1 0-4.2.3-6.1.8-3.9-6.8-11.2-11.5-19.6-11.5-12 0-21.8 9.3-22.5 21.1-1.1-.2-2.2-.3-3.4-.3-9.5 0-17.3 7.2-18.3 16.3-5.6.1-10 4.7-10 10.3 0 5.7 4.6 10.3 10.3 10.3h86.2c5.7 0 10.3-4.6 10.3-10.3-.2-3.2-1.7-6.1-4-7.9zM571.2 118.7v23.8M571.2 104.5v9.5M571.2 95.6v5.1M566.7 139.7l4.5 5.5 4.5-5.5M356 386.9c.4-1.7.6-3.5.6-5.3 0-13-10.5-23.5-23.5-23.5-2.1 0-4.2.3-6.1.8-3.9-6.8-11.2-11.5-19.6-11.5-12 0-21.8 9.3-22.5 21.1-1.1-.2-2.2-.3-3.4-.3-9.5 0-17.3 7.2-18.3 16.3-5.6.1-10 4.7-10 10.3 0 5.7 4.6 10.3 10.3 10.3h86.2c5.7 0 10.3-4.6 10.3-10.3-.2-3.1-1.7-6-4-7.9zM308.6 400.7v-23.8M308.6 414.9v-9.5M308.6 423.8v-5.1"/><path class="st1" d="m313.1 379.7-4.5-5.5-4.5 5.5"/><path class="st2" d="M466.5 104H169V89.8c0-2.3 1.9-4.2 4.2-4.2h289.1c2.3 0 4.2 1.9 4.2 4.2V104z"/><path class="st3" d="M182 107.4h300.7V319H182zM487.3 94.8c0 2.5-2.1 4.6-4.6 4.6-2.5 0-4.6-2.1-4.6-4.6 0-2.5 2.1-4.6 4.6-4.6 2.6 0 4.6 2.1 4.6 4.6zM471.1 94.8c0 2.5-2.1 4.6-4.6 4.6-2.5 0-4.6-2.1-4.6-4.6 0-2.5 2.1-4.6 4.6-4.6 2.6 0 4.6 2.1 4.6 4.6zM454.9 94.8c0 2.5-2.1 4.6-4.6 4.6-2.5 0-4.6-2.1-4.6-4.6 0-2.5 2.1-4.6 4.6-4.6 2.5 0 4.6 2.1 4.6 4.6z"/><path class="st4" d="M473.6 116.5h-11.9M473.6 121.3h-11.9M473.6 126.2h-11.9M202.8 241.4h90.1M202.8 248.5h90.1M202.8 255.7h71.1"/><path class="st5" d="M393.9 109.8v.5"/><path style="fill:none;stroke:#1a2e35;stroke-linecap:round;stroke-linejoin:round;stroke-dasharray:1.0086,3.0257" d="M393.9 113.3v200.2"/><path class="st5" d="M393.9 315v.5M185.6 271.6h.5"/><path style="fill:none;stroke:#1a2e35;stroke-linecap:round;stroke-linejoin:round;stroke-dasharray:1.0018,3.0053" d="M189.1 271.6h287"/><path class="st5" d="M477.6 271.6h.5"/><path class="st3" d="M392 269.6h3.9v3.9H392z"/><path class="st2" d="M303.7 26.2h-56.4c-1.4 0-2.5 1.1-2.5 2.5V55c0 1.4 1.1 2.5 2.5 2.5h25.3l2.9 10.4 2.9-10.4h25.3c1.4 0 2.5-1.1 2.5-2.5V28.7c0-1.4-1.1-2.5-2.5-2.5z"/><path class="st4" d="M254.2 33.7h42.6M254.2 39.1h42.6M254.2 44.5h42.6M254.2 49.9h32.1"/><path class="st8" d="M219.3 305h61.4v38.5h-61.4z"/><path class="st2" d="M219.3 305h61.4v5.9h-61.4z"/><path class="st9" d="M225.6 315.8h15.7M233.4 320.2h27.2M229.9 324.3h8M233.4 329.1h18.3M225.6 333.5h15.7"/><path class="st1" d="M378.2 233.6h-52.8M379.2 258s0-24.5-27.4-24.5-27.4 24.5-27.4 24.5"/><circle class="st2" cx="379.2" cy="258" r="2.3"/><path class="st2" d="M322.1 258c0-1.3 1-2.3 2.3-2.3 1.3 0 2.3 1 2.3 2.3 0 1.3-1 2.3-2.3 2.3-1.3 0-2.3-1-2.3-2.3z"/><path transform="rotate(-180 379.183 233.522)" class="st2" d="M377.2 231.5h4.1v4.1h-4.1z"/><path transform="rotate(-180 351.802 233.522)" class="st2" d="M349.8 231.5h4.1v4.1h-4.1z"/><path transform="rotate(-180 324.421 233.522)" class="st2" d="M322.4 231.5h4.1v4.1h-4.1z"/><path class="st2" d="M235.6 160v-8.1l-6.1-.5c-.4-1.3-.9-2.5-1.5-3.6l3.9-4.7-5.7-5.7-4.7 3.9c-1.1-.6-2.4-1.1-3.6-1.5l-.5-6.1h-8.1l-.5 6.1c-1.3.4-2.5.9-3.6 1.5l-4.7-3.9-5.7 5.7 3.9 4.7c-.6 1.1-1.1 2.4-1.5 3.6l-6.1.5v8.1l6.1.5c.4 1.3.9 2.5 1.5 3.6l-3.9 4.7 5.7 5.7 4.7-3.9c1.1.6 2.4 1.1 3.6 1.5l.5 6.1h8.1l.5-6.1c1.3-.4 2.5-.9 3.6-1.5l4.7 3.9 5.7-5.7-3.9-4.7c.6-1.1 1.1-2.4 1.5-3.6l6.1-.5zm-22.2 5.3c-5.2 0-9.4-4.2-9.4-9.4s4.2-9.4 9.4-9.4 9.4 4.2 9.4 9.4-4.3 9.4-9.4 9.4zM263.1 178.1v-5.5l-4.2-.4c-.2-.9-.6-1.7-1-2.5l2.7-3.2-3.9-3.9-3.2 2.7c-.8-.4-1.6-.8-2.5-1l-.4-4.2h-5.5l-.4 4.2c-.9.2-1.7.6-2.5 1l-3.2-2.7-3.9 3.9 2.7 3.2c-.4.8-.8 1.6-1 2.5l-4.2.4v5.5l4.2.4c.2.9.6 1.7 1 2.5l-2.7 3.2 3.9 3.9 3.2-2.7c.8.4 1.6.8 2.5 1l.4 4.2h5.5l.4-4.2c.9-.2 1.7-.6 2.5-1l3.2 2.7 3.9-3.9-2.7-3.2c.4-.8.8-1.6 1-2.5l4.2-.4zm-15.2 3.7c-3.6 0-6.4-2.9-6.4-6.4s2.9-6.4 6.4-6.4 6.4 2.9 6.4 6.4-2.9 6.4-6.4 6.4z"/><path class="st4" d="M405.2 285h44.4M405.2 292.2h44.4M405.2 299.4h25.3"/><path class="st2" d="M346.8 302.3h-23.3c-3.2 0-5.7-2.6-5.7-5.7h0c0-3.2 2.6-5.7 5.7-5.7h23.3c3.2 0 5.7 2.6 5.7 5.7h0c.1 3.2-2.5 5.7-5.7 5.7zM390.3 302.3H367c-3.2 0-5.7-2.6-5.7-5.7h0c0-3.2 2.6-5.7 5.7-5.7h23.3c3.2 0 5.7 2.6 5.7 5.7h0c.1 3.2-2.5 5.7-5.7 5.7z"/><path class="st3" d="M408.5 179.5H458V229h-49.5zM408.5 179.5 458 229M458 179.5 408.5 229"/><path class="st8" d="M450.3 150.1h61.4v38.5h-61.4z"/><path class="st2" d="M450.3 150.1h61.4v5.9h-61.4z"/><path class="st9" d="M456.6 160.9h15.7M464.4 165.3h27.2M461 169.4h8M464.4 174.2h18.3M456.6 178.6h15.7"/><path class="st3" d="M427.9 123.3v11.6l-5.1 5.1h-11.6v-16.7z"/><path class="st3" d="m427.9 134.9-5.1 5.1v-5.1zM250.9 212.7v11.5l-5.1 5.1h-11.6v-16.6z"/><path class="st3" d="m250.9 224.2-5.1 5.1v-5.1zM188 283.8v11.6l-5.1 5.1h-11.6v-16.7z"/><path class="st3" d="m188 295.4-5.1 5.1v-5.1zM396.3 213.4c-6.1.5-13.8-6.7-13.8-6.7s-1.2 1.1-2.2-.3c-1-1.4-5.3-4.7-5.5-7.5-.2-2.8 4.8-7.4 4.8-7.4-3.9 1.1-4.3-1.2-4.3-1.2s6.5-5.4 8.8-5.5c.9-.1 4.8 2.2 8.6 5.2 3.9 3.2 11.3 14.3 11.3 14.3s25 18.2 31.3 22.8c8.3 6.1 18.2 17 18.2 17s33.2 15 42.3 23.2l-12.4 29.3s-30.2-20.2-33.2-25.4c-3-5.1-6-2-9.1-5.4-3-3.4-5.9-7.2-5.9-7.2s-7.3-3.2-14.4-10.4c-7.1-7.2-13.3-18.3-17.2-25-3.6-6.6-7.3-9.8-7.3-9.8z"/><path class="st3" d="M398.2 209.1s-9-2.2-9.8-8.1c-.3-1.9-1.9-4.2-1.9-4.2s-8.4-.4-7.9-3.8l11.2-1s6.1 2 9.8 8.2"/><path class="st1" d="M382.6 206.7s.6-.8.4-2.4c0 0 2.5-.4 2.2-2.6 0 0 3.7-.5 1.3-4.8"/><path class="st1" d="M385.2 201.6s-4.9-3.7-5.5-5.3M383 204.3s-5.3-3.2-5.3-5.1M384.2 187.8s-1.7 3-4.4 3.6"/><path class="st1" d="M383.3 189s1.3.7 2.5 1.6"/><path class="st10" d="M575.2 290.4s-19.8-8.6-40-13.3c-20.1-4.7-52.6-8.9-52.6-8.9s8.9 91.3 6.6 96.8c-2.4 5.5-16.5 23.9-16.5 23.9s76.6 29.9 89.9 32.4c13.3 2.5 6.4-43.8 6.4-43.8s14.1-58.9 6.2-87.1z"/><path class="st3" d="M547.7 280.6s1.8 3.5-3 5.2c-12.4 4.6-25.6.5-24.2-4.3.5-1.9 3.6 0 3.4-6.9 0-.9-.3-1.9-.8-3-.8-1.7-1.9-3.6-3.1-5.3-2.1-2.9-4.2-5.3-4.2-5.3s19.7-12.6 34.3 0c-.1-.1-5.5 2.7-2.4 19.6z"/><defs><path id="XMLID_529_" d="M572.1 443.3c-7.7 12.6-47.1 18.6-68.5 18-21.5-.5-83.2-29.8-87.4-36-3.9-5.7-13.4-24.7 1.3-36.2 1.2-.9 2.5-1.8 4-2.6 10.1-5.4 77 11.7 77 11.7s4.1-2.6 5.7-2.4c4.7.6 8 4.4 17.4 7.1 6.6 1.9 24.6-5.4 36.2.9 1.3.7 2.4 1.5 3.5 2.5 10.6 10.3 18.5 24.3 10.8 37z"/></defs><use xlink:href="#XMLID_529_" style="overflow:visible;fill:#692bef"/><clipPath id="XMLID_2_"><use xlink:href="#XMLID_529_" style="overflow:visible"/></clipPath><path d="M557.7 403.8c-11.8-.8-22.3 1.7-29.7 6-8.7 5.2-49.9 25-49.9 25 .1-2.1 2.4-6.4 2.4-6.4-3.9-3.4-14-6.1-14-6.1-7.8-6.7-39-26.7-49.1-33.1 1.2-.9 2.5-1.8 4-2.6 10.1-5.4 77 11.7 77 11.7s4.1-2.6 5.7-2.4c4.7.6 8 4.4 17.4 7.1 6.6 1.8 24.6-5.4 36.2.8z" style="opacity:.3;clip-path:url(#XMLID_2_);fill-opacity:.7"/><use xlink:href="#XMLID_529_" style="overflow:visible;fill:none;stroke:#1a2e35;stroke-linecap:round;stroke-linejoin:round;stroke-miterlimit:10"/><path class="st3" d="m560 454.7 1 4.3s-2.6 7.5-14.2 8.7c-11.6 1.2-18.4 3.8-24 4.1-5.6.3-8.8-.1-8.8-.1l-1.1-1.7 47.1-15.3z"/><defs><path id="XMLID_528_" d="m492.8 454.2 20.1 15.7s15.5-1.2 28.8-4.3c9.5-2.2 17.8-5.4 18.3-9.7.7-6.6-6.3-8.4-14.7-8.1-1.6 0-3.2.2-4.8.3-13.4 1.4-30.3-5.9-30.3-5.9l-17.4 12z"/></defs><use xlink:href="#XMLID_528_" style="overflow:visible;fill:#1a2e35"/><clipPath id="XMLID_3_"><use xlink:href="#XMLID_528_" style="overflow:visible"/></clipPath><path d="M559.9 455.8c-3.6 1.4-8.1 3.4-11.2 5.5 0 0-18.6 9.6-47.2-.3l-8.7-6.8 17.3-12s17 7.4 30.3 5.9c1.6-.2 3.2-.3 4.8-.3 8.3-.2 15.3 1.6 14.7 8z" style="opacity:.3;clip-path:url(#XMLID_3_);fill-opacity:.7"/><use xlink:href="#XMLID_528_" style="overflow:visible;fill:none;stroke:#1a2e35;stroke-linecap:round;stroke-linejoin:round;stroke-miterlimit:10"/><defs><path id="XMLID_527_" d="M511.5 460.4c-3.6.6.4 8 5.3 5.7 4.9-2.2-1.7-6.3-5.3-5.7z"/></defs><use xlink:href="#XMLID_527_" style="overflow:visible;fill:#fff"/><clipPath id="XMLID_4_"><use xlink:href="#XMLID_527_" style="overflow:visible"/></clipPath><path d="M518.3 465c-2.5-.3-5.1-.7-7.8-1.4-.7-1.4-.5-2.9 1-3.2 3.1-.5 8.2 2.3 6.8 4.6z" style="opacity:.2;clip-path:url(#XMLID_4_);fill-opacity:.7"/><use xlink:href="#XMLID_527_" style="overflow:visible;fill:none;stroke:#1a2e35;stroke-linecap:round;stroke-linejoin:round;stroke-miterlimit:10"/><defs><path id="XMLID_526_" d="M541.6 465.6c9.5-2.2 17.8-5.4 18.3-9.7.7-6.6-6.3-8.4-14.7-8.1-.3.4-8.4 8.2-3.6 17.8z"/></defs><use xlink:href="#XMLID_526_" style="overflow:visible;fill:#fff"/><clipPath id="XMLID_5_"><use xlink:href="#XMLID_526_" style="overflow:visible"/></clipPath><path d="M559.9 455.8c-3.6 1.4-8.1 3.4-11.2 5.5 0 0-2.8 1.4-7.8 2.6-3.2-8.8 4-15.7 4.3-16.1 8.3-.2 15.3 1.6 14.7 8z" style="opacity:.3;clip-path:url(#XMLID_5_);fill-opacity:.7"/><use xlink:href="#XMLID_526_" style="overflow:visible;fill:none;stroke:#1a2e35;stroke-linecap:round;stroke-linejoin:round;stroke-miterlimit:10"/><path class="st3" d="M534.9 457.5s0 0 0 0c.6 0 1.1-.4 1.1-.9.2-4.1 3.4-7.5 3.4-7.5.4-.4.4-1 0-1.4-.4-.4-1-.4-1.4 0-.2.2-3.7 3.9-4 8.8 0 .5.3.9.9 1zM530.9 457.7s.1 0 0 0c.6 0 1.1-.4 1.1-1 .1-4.2 3-7.8 3-7.8.3-.4.3-1-.1-1.4-.4-.3-1-.3-1.4.1-.1.2-3.4 4.2-3.5 9.1 0 .5.4 1 .9 1zM526.1 457.2s.1 0 0 0c.6 0 1-.4 1.1-.9.3-3.5 3.3-7.9 3.3-8 .3-.5.2-1.1-.3-1.4-.5-.3-1.1-.2-1.4.3-.1.2-3.3 4.9-3.6 8.9 0 .6.4 1.1.9 1.1zM521.7 456.7h.3c.5-.1.9-.6.8-1.1-.7-4.2 3.2-7.8 3.2-7.9.4-.4.4-1 .1-1.4-.4-.4-1-.4-1.4-.1-.2.2-4.8 4.4-3.9 9.7.1.5.4.8.9.8zM516.8 455.6h.3c.5-.1.9-.7.7-1.2-.9-3.8 2.8-8 2.9-8 .4-.4.3-1-.1-1.4-.4-.4-1-.3-1.4.1-.2.2-4.4 5-3.3 9.8.1.3.5.6.9.7zM413.6 448.2l-1.4 4.2s1.8 7.7 13.2 10.1c11.4 2.4 17.9 5.7 23.4 6.6 5.5.9 8.8.8 8.8.8l1.3-1.6-45.3-20.1z"/><defs><path id="XMLID_525_" d="m480.5 454.8-21.6 13.5s-15.3-2.9-28.1-7.3c-9.2-3.2-17.1-7.2-17.1-11.5 0-6.6 7.2-7.7 15.5-6.5 1.5.2 3.1.5 4.7.8 13.1 2.8 30.8-2.7 30.8-2.7l15.8 13.7z"/></defs><use xlink:href="#XMLID_525_" style="overflow:visible;fill:#1a2e35"/><clipPath id="XMLID_6_"><use xlink:href="#XMLID_525_" style="overflow:visible"/></clipPath><path d="m480.5 454.8-12.7 8c-12.8-3.8-21-12-25.8-18.2 11.3 0 22.6-3.5 22.6-3.5l15.9 13.7z" style="opacity:.3;clip-path:url(#XMLID_6_);fill-opacity:.7"/><use xlink:href="#XMLID_525_" style="overflow:visible;fill:none;stroke:#1a2e35;stroke-linecap:round;stroke-linejoin:round;stroke-miterlimit:10"/><path class="st3" d="M430.8 461.1c-9.2-3.2-17.1-7.2-17.1-11.5 0-6.6 7.2-7.7 15.5-6.5.2.3 7.4 8.9 1.6 18zM438.4 453.7c-.1 0-.1 0 0 0-.6 0-1-.5-1-1 .2-4.1-2.6-7.8-2.6-7.9-.3-.4-.3-1.1.2-1.4.4-.3 1.1-.3 1.4.2.1.2 3.3 4.3 3 9.2-.1.4-.5.9-1 .9zM442.3 454.3s-.1 0 0 0c-.6-.1-1-.5-1-1.1.4-4.2-2.2-8.1-2.2-8.1-.3-.5-.2-1.1.3-1.4.5-.3 1.1-.2 1.4.3.1.2 2.9 4.5 2.5 9.4-.1.5-.5.9-1 .9zM447.1 454.3s0 0 0 0c-.6 0-1-.5-1-1 .1-3.5-2.4-8.2-2.4-8.3-.3-.5-.1-1.1.4-1.3.5-.3 1.1-.1 1.3.4.1.2 2.7 5.2 2.7 9.2 0 .6-.5 1-1 1zM451.6 454.3h-.3c-.5-.1-.8-.7-.7-1.2 1.1-4.1-2.4-8.1-2.4-8.2-.4-.4-.3-1 .1-1.4.4-.4 1-.3 1.4.1.2.2 4.3 4.8 2.8 10-.1.4-.5.7-.9.7zM456.6 453.7c-.1 0-.2 0-.3-.1-.5-.2-.8-.7-.6-1.3 1.3-3.6-2-8.3-2-8.3-.3-.4-.2-1.1.2-1.4.4-.3 1.1-.2 1.4.2.2.2 3.9 5.5 2.3 10.1-.2.5-.6.8-1 .8zM461.3 459c3.5 1-1.2 7.9-5.8 5.2-4.7-2.8 2.2-6.1 5.8-5.2z"/><path class="st2" d="M420.4 422.2c5.3 7.4 21 15.6 36.7 22.4 1.7 2.8 5.1 8 9.8 12.8 9.6 9.9 13.6 4.4 13.6 4.4s6.1-.7 15.1-1.9c.6 1.2 2 3 4.5 2.6 1.2-.2 3.4-1.9 6-4.1 22.7-3.4 53.5-9.1 61.8-15.8"/><path class="st1" d="M559 408.1c-3.9-4.3-7.9-4.5-16.1-3.9 0 0-21.5 6.8-36.5 15.9-15 9.1-36.9 18.6-36.9 18.6s-6.7-1.9-11.3 0c0 0-3.3.3-1.1 6M569 433.9s.1 6.7-9.3 11.3"/><path class="st1" d="M465 406.1s14.9 10.8 17.9 17.9c0 0 5.7 2.4 8.5 4.4"/><path class="st1" d="M483.9 415.1c1 3.1 1.4 6.5.5 9.6M480.5 408.1c.8 1.2 1.5 2.4 2.1 3.7M501.7 407.1s5 6.7 6.2 12.1M529.4 447.4c1.9-.1 3.7-.3 5.5-.7M482.7 442.6c13.6 2.6 28.5 4.6 42.8 4.9"/><path class="st3" d="M583.5 341.7s-2.7 46.9-5.9 49.6c-3.2 2.7-8.2 3.5-17.6 4.3-9.5.8-51.3 3.4-51.3 3.4l-4.5-13.5s22.3-2.3 32.1-5.9c9.9-3.6 22.7-6 22.7-6s-1.9-11.8-1.9-16.9v-23.9"/><path class="st10" d="M575.2 290.4c10.2 6.3 13.2 20.8 9.7 51.8 0 0 3 3.7-1.4 5.5 0 0-16.7-6.2-24.4-1.9-7.8 4.3-5.7-5.9-5.7-5.9s-3.2-28.5 3.9-33.7"/><path class="st9" d="M556.2 301.8s-9.8 10.2-1.2 36c0 0-1.2 4.7-1.2 6.4 0 1.7 2.4 2.6 2.4 2.6"/><path class="st9" d="M544.8 319s.7 12.6 8.5 18.1M547.3 289.8s-15.2 5.8-27.3-.6c-7.2-3.8-4.2-10-4.2-10"/><path d="M437.9 408.1h82.8c1.9 0 3.7-.2 5.5-.7l16.3-4.3c.5-.1.8-.5.8-1h0c0-.6-.5-1.1-1.1-1.1H434.5c-.6 0-1.1.5-1.1 1.1v1.5c0 2.5 2 4.5 4.5 4.5z" style="fill:#757575;stroke:#1a2e35;stroke-linecap:round;stroke-linejoin:round;stroke-miterlimit:10"/><path d="M429.7 404h83c1.4 0 2.3-1.2 1.9-2.7l-15.4-59.9c-.4-1.5-1.9-2.7-3.3-2.7h-83c-1.4 0-2.3 1.2-1.9 2.7l15.4 59.9c.3 1.5 1.8 2.7 3.3 2.7z" style="fill:#999;stroke:#1a2e35;stroke-linecap:round;stroke-linejoin:round;stroke-miterlimit:10"/><path class="st1" d="M415.8 340.9h-1.6M428 340.9h-8.1M510.7 396.4l-13.6-52.9c-.4-1.5-1.9-2.7-3.3-2.7h-64M511.9 401l-.3-1.3"/><path class="st3" d="M454.7 372.9c.1.5.1 1 .3 1.4 1.1 3.6 4.4 5.8 7.5 4.9 3.1-.9 4.8-4.6 3.7-8.2-1.1-3.6-4.4-5.8-7.6-4.9-.4.1-.7.3-1 .4.3 2.8-.9 5.3-2.9 6.4z"/><path class="st10" d="M491.3 260.6c-7.2-.8-11.1-7.6-15.4-8.7-4.3-1.1-7.1-2.3-7.1-2.3s-1.5-5.2-3.7-3.4c-2.2 1.8-5.2 40.6-2.3 39.4 2.9-1.2 2.9 3.4 2.9 3.4l26.7 23.5 22.4-39.6c-.1.1-16.3-11.5-23.5-12.3z"/><path class="st5" d="M273.9 122.1v-.5h.5"/><path class="st18" d="M277.3 121.6h97.6"/><path class="st5" d="M376.4 121.6h.5v.5"/><path class="st19" d="M376.9 125.2v63.1"/><path class="st5" d="M376.9 189.8v.5h-.5"/><path class="st18" d="M373.4 190.3h-97.5"/><path class="st5" d="M274.4 190.3h-.5v-.5"/><path class="st19" d="M273.9 186.8v-63.1"/><circle class="st2" cx="325.4" cy="121.6" r="1.7"/><circle class="st2" cx="273.9" cy="156" r="1.7"/><circle class="st2" cx="325.4" cy="190.3" r="1.7"/><circle class="st2" cx="376.9" cy="156" r="1.7"/><path class="st2" d="M374.9 188.3h3.9v3.9h-3.9zM374.9 119.7h3.9v3.9h-3.9zM271.9 188.3h3.9v3.9h-3.9zM271.9 119.7h3.9v3.9h-3.9z"/><path class="st3" d="M280.7 127.7h89.7v57h-89.7z"/><path class="st2" d="m370.4 167.9-10 9.9-27-26.9-11.3 11.3-18.1-18.1-23.3 23.3v17.3h89.7z"/><circle class="st2" cx="351.8" cy="143.9" r="6.3"/><path class="st9" d="M496 271.1s-6.8 12.8-7.7 32.4M475.9 280s2 10.9 8 18.8M504.1 324.9s10.3 33.8 32.7 43.8"/><path class="st10" d="M531.2 263.6s-1 7.4-8.1 7.9c-.8-1.7-1.9-3.6-3.1-5.3 4.7-1.5 11.2-2.6 11.2-2.6z"/><path class="st3" d="M546.3 264.1s11.9 1.4 16.8-14.5c5-15.9 1.1-27.9-18.6-33.7-10.9-3.2-21.8-.6-25.7 7.6-3.4 7.1-1.8 12.9-2.6 15.3-.9 2.7-8.9 4.9-8.9 6.7 0 1.5 4.4 4.1 4.4 4.1l-1.3 4 1.2.7s-2.3 8.9-1.2 12.1c.8 2.3 20.9 3.2 22.4-2.4"/><path class="st1" d="M519 229.3s3.9 1 5 3"/><path class="st10" d="M519.7 238.4c-.2 1.2.1 2.1.6 2.2.5.1 1-.8 1.2-2 .2-1.2-.1-2.1-.6-2.2-.5 0-1.1.8-1.2 2z"/><path class="st1" d="M511.8 254.3s6.4 2.5 8.8 1M514 237.5c-.5 2.6.1 4.8 1.3 5 1.2.2 2.5-1.7 3-4.2.5-2.6-.1-4.8-1.3-5-1.1-.3-2.5 1.6-3 4.2z"/><path class="st10" d="M563.7 224.4s-.9-6.7-7.5-11.5c-6.5-4.8-14.4-5.9-14.4-5.9s3.8 1.7 5.2 3.8c0 0-9.8-7.4-21.5-2.5-11.6 4.8-10.2 17.4-10.2 17.4l1.7-3.3s-.2 3.9 1.9 5.4c0 0 1.2-3.8 2.5-5.5 0 0 3.1 9.3 11.6 12.4 0 0-.9-1.8-.1-4.6 0 0 4.7 10.2 3.3 15.2l1.5 2.6s5.4-5.5 9.8-.9c2.5 2.6-4.8 12.6-5.9 12.6l4.4 6.5s11.1 1.6 17.5-10.5c6.4-12 4.8-17.2 4.8-17.2s2.1 2.9 2.4 4.6c.2.1 2-12.8-7-18.6z"/><path class="st3" d="M537.5 249.2s3.4-11.5 10.7-7.5c7.3 4.1 2.1 10.2-.5 12.6-2.6 2.4-4.6 6.7-6.3 6.7-1.7 0-2.1-2.1-2.1-2.1"/><path class="st1" d="m518.3 238.3 20.4 4.2"/></svg>