<svg version="1.1" id="Calque_1" xmlns="http://www.w3.org/2000/svg" xmlns:xlink="http://www.w3.org/1999/xlink" x="0" y="0" viewBox="0 0 800.2 498.1" style="enable-background:new 0 0 800.2 498.1" xml:space="preserve"><style>.st0{clip-path:url(#SVGID_2_)}.st1{fill:#5ae4a7}.st3{fill:#fff}.st5{opacity:.2}.st6{fill:#fff;stroke:#1a2e35;stroke-miterlimit:10}.st9{fill:#1a2e35}.st10{clip-path:url(#XMLID_6_)}.st11{fill:#fff}.st11,.st12{opacity:.5}.st13{fill:none}.st14,.st19,.st20,.st23{fill:none;stroke:#1a2e35;stroke-miterlimit:10}.st19,.st20,.st23{stroke-linecap:round;stroke-linejoin:round}.st20,.st23{fill:#fff}.st23{fill:#bfbfbf}.st24{opacity:.1;fill:#fff}</style><defs><path id="SVGID_1_" d="M0 0h800.2v498.1H0z"/></defs><clipPath id="SVGID_2_"><use xlink:href="#SVGID_1_" style="overflow:visible"/></clipPath><g class="st0"><path class="st1" d="M1050 229.2c0 27.4-3 54.8-9.5 81.3-2.1 8.7-4.7 17.4-7.7 26-.9 2.5-1.7 4.9-2.6 7.3-.7 2-1.5 4-2.3 6-.2.5-.4 1.1-.7 1.6-.8 2.1-1.7 4.1-2.5 6.1-.1.3-.3.7-.4 1-.9 2-1.7 4-2.6 6-.4.9-.8 1.7-1.2 2.6-.8 1.8-1.6 3.5-2.5 5.3-.9 1.9-1.8 3.7-2.7 5.5-.3.7-.7 1.3-1 1.9-.8 1.6-1.6 3.1-2.4 4.7-.7 1.2-1.3 2.4-2 3.6-3 5.6-6.2 11.1-9.5 16.6-1.3 2.2-2.7 4.5-4.1 6.7-.3.5-.7 1.1-1 1.6-1.6 2.5-3.2 5-4.9 7.5-1.3 2-2.7 4.1-4.1 6.1-1.2 1.8-2.4 3.5-3.6 5.3-.3.4-.5.7-.8 1.1-1.3 1.8-2.6 3.7-3.9 5.5-1.6 2.3-3.2 4.5-4.9 6.7-.3.5-.7.9-1 1.3-1.9 2.5-3.8 5.1-5.7 7.5-1.1 1.5-2.3 3-3.5 4.5l-6.3 8.1c-2 2.6-4.1 5.1-6.2 7.7-.2.3-.5.5-.7.8-2.1 2.5-4.1 5.1-6.2 7.6-.6.8-1.3 1.5-1.9 2.3-1.9 2.3-3.9 4.6-5.8 6.9-5.6 6.6-11.2 13.2-16.9 19.7-11.6 13.3-23.4 26.5-35.4 39.7-10 10.8-20.2 21.6-30.6 32.2-49.7 51.1-103.6 98.7-162.1 136.7-7.3 4.7-14.6 9.3-22 13.7l-8.1 4.8c-.5.3-.9.5-1.4.8-2.8 1.6-5.6 3.2-8.4 4.7-2.9 1.6-5.8 3.2-8.7 4.7l-3.9 2.1c-5.7 3-11.4 5.8-17.2 8.6-3.1 1.5-6.2 2.9-9.4 4.3l-8.7 3.9-3.6 1.5c-2.7 1.1-5.3 2.2-8 3.3-5.2 2.1-10.4 4.1-15.6 6-2 .7-4 1.5-6.1 2.2-1.1.4-2.3.8-3.4 1.2-1.9.6-3.8 1.3-5.7 1.9-1.6.5-3.3 1.1-4.9 1.6-.1 0-.1 0-.2.1-3.2 1-6.5 2-9.7 2.9-5.1 1.5-10.2 2.9-15.4 4.2-3.4.9-6.8 1.7-10.2 2.4-3.2.7-6.5 1.4-9.7 2.1-.3.1-.5.1-.8.1-3.4.7-6.8 1.3-10.2 1.9-1.7.3-3.5.6-5.2.9-1.7.3-3.5.6-5.3.8-1.6.3-3.2.5-4.7.7-1.9.3-3.9.5-5.8.8-20.3 2.6-40.7 3.7-61 3.5-1.2 0-2.4 0-3.7-.1-18.4-.3-36.9-1.8-55.2-4.1-1.3-.2-2.7-.3-4-.5-2.3-.3-4.6-.6-6.9-1l-5.4-.9c-7.6-1.2-15.2-2.6-22.8-4.1-1.7-.3-3.3-.7-5-1-5.1-1.1-10.2-2.2-15.2-3.4-3.4-.8-6.8-1.6-10.1-2.5-1.7-.4-3.4-.9-5.1-1.3-1.7-.4-3.4-.9-5.1-1.3-6.7-1.8-13.4-3.7-20-5.8-7.7-2.3-15.4-4.8-23.1-7.5-2.8-.9-5.6-1.9-8.3-2.9-8.6-3.1-17.2-6.3-25.7-9.6-1.5-.6-3.1-1.2-4.7-1.9-1.2-.5-2.5-1.1-3.7-1.6-.8-.4-1.7-.7-2.5-1.1-5.5-2.5-11.6-5.5-18-8.8-1.1-.6-2.2-1.1-3.3-1.7-4-2.1-8.1-4.3-12.4-6.6-8.9-4.9-18.5-10.3-28.6-16.2-114.1-67.6-289-193.7-330-241.5-2.1-2.4-4.1-4.9-6.1-7.4-1.6-1.9-3.1-3.9-4.7-5.9-1.4-1.8-2.8-3.6-4.1-5.5-1.2-1.6-2.4-3.2-3.5-4.9-1.1-1.5-2.2-3.1-3.2-4.6-.1-.1-.1-.2-.2-.3-1.3-1.9-2.6-3.8-3.8-5.8-1.2-1.9-2.4-3.7-3.5-5.6-.6-.9-1.1-1.8-1.7-2.7-1.3-2.1-2.5-4.2-3.8-6.3v-.1c-1.3-2.3-2.6-4.7-3.9-7.1-2.2-4.1-4.4-8.3-6.4-12.5l-1.5-3.3c-4.1-8.7-7.6-17.5-10.7-26.5-1.1-3.1-2.1-6.3-3.1-9.5-1.2-4.1-2.3-8.2-3.4-12.3-.2-.8-.4-1.6-.6-2.5-.5-2.1-1-4.3-1.4-6.5-.7-3-1.2-6.1-1.7-9.1-.1-.7-.3-1.5-.3-2.2-.3-1.6-.5-3.1-.7-4.7-.3-1.9-.5-3.8-.7-5.7-.1-.7-.1-1.3-.2-1.9-.2-1.6-.3-3.3-.4-4.9v-.4c-.1-1.9-.3-3.9-.3-5.8v-.5c-.1-2-.1-4.1-.2-6.1V304c0-3 .1-6 .3-8.9.1-1.9.3-3.9.4-5.8.3-3.8.8-7.7 1.4-11.4.3-1.9.6-3.9 1-5.8.7-3.9 1.5-7.7 2.5-11.6 2.6-10.1 5.9-19.9 9.9-29.3 3-7.2 6.5-14.2 10.3-21 .3-.6.6-1.2 1-1.7 15.4-27.1 36.3-51.1 59.9-73.4 2.5-2.4 5.1-4.7 7.7-7.1 2.7-2.5 5.5-4.9 8.2-7.4.2-.1.3-.3.5-.5 4.4-3.9 8.9-7.7 13.4-11.5 7-5.9 14.1-11.6 21.3-17.3.2-.2.5-.4.7-.6 6.1-4.9 12.3-9.7 18.5-14.5 9.7-7.5 19.4-15 29-22.4 2.5-2 5.1-3.9 7.5-5.9 2.8-2.2 5.5-4.3 8.2-6.5C-44.4 21.2-22.3-.6-1.8-23c4-4.3 7.9-8.7 11.8-13.1 1.9-2.1 3.7-4.2 5.5-6.3 26.1-29.7 50.3-59.7 77.3-88.1 6.4-6.8 13-13.4 19.8-20 5.7-5.5 11.5-10.8 17.5-16.1 6.9-6.1 14-12 21.4-17.7 10.1-7.9 20.8-15.4 32.2-22.7 2.8-1.8 5.6-3.5 8.4-5.3 284.7-176.9 494.2-119.2 634 0 10.5 8.9 20.7 18.3 30.4 27.9 5.9 5.7 11.7 11.7 17.2 17.7.6.6 1.2 1.3 1.8 2 3.9 4.2 7.7 8.4 11.4 12.6 1.1 1.3 2.2 2.5 3.3 3.8 1.6 1.9 3.3 3.8 4.9 5.7 2 2.3 3.9 4.7 5.9 7l3.6 4.5c7.8 9.6 15.2 19.3 22.3 29.1 1.4 1.9 2.8 3.9 4.2 5.9 9.8 13.7 18.8 27.6 27.3 41.3 1.2 2 2.4 3.9 3.6 5.9 1.2 2 2.4 3.9 3.5 5.9 1.1 1.9 2.3 3.9 3.4 5.9 1.1 2 2.3 3.9 3.3 5.9s2.2 3.9 3.3 5.9c1.1 1.9 2.2 3.9 3.2 5.8 1.1 1.9 2.1 3.9 3.1 5.8s2 3.9 3 5.8 2 3.8 2.9 5.7c1 1.9 1.9 3.8 2.9 5.7 3.7 7.5 7.3 15 10.6 22.3 1.7 3.7 3.3 7.4 4.9 11 7.1 16.3 13.2 31.9 18.2 46.5 0 .1.1.1.1.2.5 1.4.9 2.8 1.4 4.1.5 1.4.9 2.8 1.4 4.2.3 1.1.7 2.1 1 3.2l1.5 4.8c.5 1.7 1.1 3.5 1.5 5.2.9 3.2 1.9 6.4 2.7 9.6.7 2.7 1.5 5.4 2.1 8.2.1.5.3 1 .4 1.5.1.4.2.9.3 1.3l1.2 4.8c1 4.3 2 8.5 2.9 12.8.5 2.3 1 4.7 1.4 7 .1.4.2.9.3 1.3l1.2 6.6c.5 2.9 1 5.9 1.4 8.9.4 2.2.7 4.5 1 6.7 0 .3.1.7.1 1l.6 4.5c.2 1.3.3 2.5.5 3.7.5 4.5 1 9.1 1.3 13.6.1 1 .2 2.1.3 3.1.1 1.7.2 3.5.3 5.2.1 1.9.2 3.8.3 5.8.1 1.5.1 2.9.2 4.4.1 2.2.1 4.4.2 6.5 0 2.6.1 5.2.1 7.7z"/><path class="st3" d="M1050 229.2c0 27.4-3 54.8-9.5 81.3-2.1 8.7-4.7 17.4-7.7 26-.9 2.5-1.7 4.9-2.6 7.3-.7 2-1.5 4-2.3 6-.2.5-.4 1.1-.7 1.6-.8 2.1-1.7 4.1-2.5 6.1-.1.3-.3.7-.4 1-.9 2-1.7 4-2.6 6-.4.9-.8 1.7-1.2 2.6-.8 1.8-1.6 3.5-2.5 5.3-.9 1.9-1.8 3.7-2.7 5.5-.3.7-.7 1.3-1 1.9-.8 1.6-1.6 3.1-2.4 4.7-.7 1.2-1.3 2.4-2 3.6-3 5.6-6.2 11.1-9.5 16.6-1.3 2.2-2.7 4.5-4.1 6.7-.3.5-.7 1.1-1 1.6-1.6 2.5-3.2 5-4.9 7.5-1.3 2-2.7 4.1-4.1 6.1-1.2 1.8-2.4 3.5-3.6 5.3-.3.4-.5.7-.8 1.1-1.3 1.8-2.6 3.7-3.9 5.5-1.6 2.3-3.2 4.5-4.9 6.7-.3.5-.7.9-1 1.3-1.9 2.5-3.8 5.1-5.7 7.5-1.1 1.5-2.3 3-3.5 4.5l-6.3 8.1c-2 2.6-4.1 5.1-6.2 7.7-.2.3-.5.5-.7.8-2.1 2.5-4.1 5.1-6.2 7.6-.6.8-1.3 1.5-1.9 2.3-1.9 2.3-3.9 4.6-5.8 6.9-5.6 6.6-11.2 13.2-16.9 19.7-11.6 13.3-23.4 26.5-35.4 39.7-10 10.8-20.2 21.6-30.6 32.2-49.7 51.1-103.6 98.7-162.1 136.7-7.3 4.7-14.6 9.3-22 13.7l-8.1 4.8c-.5.3-.9.5-1.4.8-2.8 1.6-5.6 3.2-8.4 4.7-2.9 1.6-5.8 3.2-8.7 4.7l-3.9 2.1c-5.7 3-11.4 5.8-17.2 8.6-3.1 1.5-6.2 2.9-9.4 4.3l-8.7 3.9-3.6 1.5c-2.7 1.1-5.3 2.2-8 3.3-5.2 2.1-10.4 4.1-15.6 6-2 .7-4 1.5-6.1 2.2-1.1.4-2.3.8-3.4 1.2-1.9.6-3.8 1.3-5.7 1.9-1.6.5-3.3 1.1-4.9 1.6-.1 0-.1 0-.2.1-3.2 1-6.5 2-9.7 2.9-5.1 1.5-10.2 2.9-15.4 4.2-3.4.9-6.8 1.7-10.2 2.4-3.2.7-6.5 1.4-9.7 2.1-.3.1-.5.1-.8.1-3.4.7-6.8 1.3-10.2 1.9-1.7.3-3.5.6-5.2.9-1.7.3-3.5.6-5.3.8-1.6.3-3.2.5-4.7.7-1.9.3-3.9.5-5.8.8-20.3 2.6-40.7 3.7-61 3.5-1.2 0-2.4 0-3.7-.1-18.4-.3-36.9-1.8-55.2-4.1-1.3-.2-2.7-.3-4-.5-2.3-.3-4.6-.6-6.9-1l-5.4-.9c-7.6-1.2-15.2-2.6-22.8-4.1-1.7-.3-3.3-.7-5-1-5.1-1.1-10.2-2.2-15.2-3.4-3.4-.8-6.8-1.6-10.1-2.5-1.7-.4-3.4-.9-5.1-1.3-1.7-.4-3.4-.9-5.1-1.3-6.7-1.8-13.4-3.7-20-5.8-7.7-2.3-15.4-4.8-23.1-7.5-2.8-.9-5.6-1.9-8.3-2.9-8.6-3.1-17.2-6.3-25.7-9.6-1.5-.6-3.1-1.2-4.7-1.9-1.2-.5-2.5-1.1-3.7-1.6-.8-.4-1.7-.7-2.5-1.1-5.5-2.5-11.6-5.5-18-8.8-1.1-.6-2.2-1.1-3.3-1.7-4-2.1-8.1-4.3-12.4-6.6-8.9-4.9-18.5-10.3-28.6-16.2-114.1-67.6-289-193.7-330-241.5-2.1-2.4-4.1-4.9-6.1-7.4-1.6-1.9-3.1-3.9-4.7-5.9-1.4-1.8-2.8-3.6-4.1-5.5-1.2-1.6-2.4-3.2-3.5-4.9-1.1-1.5-2.2-3.1-3.2-4.6-.1-.1-.1-.2-.2-.3-1.3-1.9-2.6-3.8-3.8-5.8-1.2-1.9-2.4-3.7-3.5-5.6-.6-.9-1.1-1.8-1.7-2.7-1.3-2.1-2.5-4.2-3.8-6.3v-.1c-1.3-2.3-2.6-4.7-3.9-7.1-2.2-4.1-4.4-8.3-6.4-12.5l-1.5-3.3c-4.1-8.7-7.6-17.5-10.7-26.5-1.1-3.1-2.1-6.3-3.1-9.5-1.2-4.1-2.3-8.2-3.4-12.3-.2-.8-.4-1.6-.6-2.5-.5-2.1-1-4.3-1.4-6.5-.7-3-1.2-6.1-1.7-9.1-.1-.7-.3-1.5-.3-2.2-.3-1.6-.5-3.1-.7-4.7-.3-1.9-.5-3.8-.7-5.7-.1-.7-.1-1.3-.2-1.9-.2-1.6-.3-3.3-.4-4.9v-.4c-.1-1.9-.3-3.9-.3-5.8v-.5c-.1-2-.1-4.1-.2-6.1-.1-4.9 0-9.9.3-14.8.1-1.9.3-3.9.4-5.8.3-3.8.8-7.7 1.4-11.4.3-1.9.6-3.9 1-5.8.7-3.9 1.5-7.7 2.5-11.6 2.6-10.1 5.9-19.9 9.9-29.3 3-7.2 6.5-14.2 10.3-21 .3-.6.6-1.2 1-1.7 15.4-27.1 36.3-51.1 59.9-73.4 1.3-1.3 2.7-2.5 4.1-3.8l3.6-3.3c2.7-2.5 5.5-4.9 8.2-7.4.2-.1.3-.3.5-.5 4.4-3.9 8.9-7.7 13.4-11.5 7-5.9 14.1-11.6 21.3-17.3.2-.2.5-.4.7-.6 6.1-4.9 12.3-9.7 18.5-14.5l9.3-7.2c6.6-5.1 13.2-10.2 19.7-15.2 2.5-2 5.1-3.9 7.5-5.9 2.8-2.2 5.5-4.3 8.2-6.5C-44.4 21.2-22.3-.6-1.8-23c4-4.3 7.9-8.7 11.8-13.1 1.9-2.1 3.7-4.2 5.5-6.3 26.1-29.7 50.3-59.7 77.3-88.1 6.4-6.8 13-13.4 19.8-20 5.7-5.5 11.5-10.8 17.5-16.1 6.9-6.1 14-12 21.4-17.7 10.1-7.9 20.8-15.4 32.2-22.7 2.8-1.8 5.6-3.5 8.4-5.3 284.7-176.9 494.2-119.2 634 0 10.5 8.9 20.7 18.3 30.4 27.9 5.9 5.7 11.7 11.7 17.2 17.7.6.6 1.2 1.3 1.8 2 3.9 4.2 7.7 8.4 11.4 12.6 1.1 1.3 2.2 2.5 3.3 3.8 1.6 1.9 3.3 3.8 4.9 5.7 2 2.3 3.9 4.7 5.9 7l3.6 4.5c7.8 9.6 15.2 19.3 22.3 29.1 1.4 1.9 2.8 3.9 4.2 5.9 9.8 13.7 18.8 27.6 27.3 41.3 1.2 2 2.4 3.9 3.6 5.9 1.2 2 2.4 3.9 3.5 5.9 1.1 1.9 2.3 3.9 3.4 5.9 1.1 2 2.3 3.9 3.3 5.9s2.2 3.9 3.3 5.9c1.1 1.9 2.2 3.9 3.2 5.8 1.1 1.9 2.1 3.9 3.1 5.8s2 3.9 3 5.8 2 3.8 2.9 5.7c1 1.9 1.9 3.8 2.9 5.7 3.8 7.5 7.3 15 10.6 22.3 1.7 3.7 3.3 7.4 4.9 11 7.1 16.3 13.2 31.9 18.2 46.5 0 .1.1.1.1.2.5 1.4.9 2.8 1.4 4.1.5 1.4.9 2.8 1.4 4.2.3 1.1.7 2.1 1 3.2l1.5 4.8c.5 1.7 1.1 3.5 1.5 5.2.9 3.2 1.9 6.4 2.7 9.6.7 2.7 1.5 5.4 2.1 8.2.1.5.3 1 .4 1.5.1.4.2.9.3 1.3l1.2 4.8c1 4.3 2 8.5 2.9 12.8.5 2.3 1 4.7 1.4 7 .1.4.2.9.3 1.3l1.2 6.6c.5 2.9 1 5.9 1.4 8.9.4 2.2.7 4.5 1 6.7 0 .3.1.7.1 1l.6 4.5c.2 1.3.3 2.5.5 3.7.5 4.5 1 9.1 1.3 13.6.1 1 .2 2.1.3 3.1.1 1.7.2 3.5.3 5.2.1 1.9.2 3.8.3 5.8.1 1.5.1 2.9.2 4.4.1 2.2.1 4.4.2 6.5 0 2.6.1 5.2.1 7.7z" style="opacity:.7"/></g><g class="st0"><path d="M179.1 265.3c-.2-.1-.1-.2 0 0z" style="opacity:.2;fill:#1a2e35"/><path class="st5" d="M272.6 256.5c-1 6.8-6 12.3-12.6 14.5l-2.5.8c-8.9 12.6-24.6 18-37.9 10.2l-3.9-2.3-10.9-13h-.1c-3.5.7-7.4.2-9.9-2.3-.4 2.1-3.2 3.4-5.1 2.3-1.9-1.1-2.1-4.2-.4-5.5-2.2 1.9-5.6 1-7.7-1.1-.1-5.8.5-11.6 1.9-17.3.9-3.6 2.1-7 3.4-10.3 1.1-2.5 2.3-5 3.6-7.3l.3-.6c2-3.5 4.2-6.8 6.6-10 .4-.4.8-.8 1.3-1.1.9-.9 1.9-1.7 2.9-2.6.1 0 .1-.1.2-.2 1.6-1.4 3.1-2.7 4.7-4 2.5-2 4.9-4.1 7.5-6.1.1-.1.2-.1.3-.2 2.1-1.7 4.3-3.4 6.5-5.1 1.1-.8 2.2-1.7 3.3-2.5.7.1 1.3.2 1.9.4 2.7.9 3.1 3.4 5 5.1 2.5 2.3 4.8-1.5 8.6-1.4 11.6.4 7.1 12.3 12.8 10.8 24.6-6.5 20.4 24.9 9.8 31.8 6.2 5.4 11.7 8.8 10.4 17z"/><ellipse class="st6" cx="219.8" cy="245.4" rx="41.4" ry="40.9"/><ellipse cx="219.8" cy="243.8" rx="37.8" ry="37.3" style="fill:#1a2e35;stroke:#fff;stroke-miterlimit:10"/><path class="st1" d="M179.2 258.5c-2.4 1.5-3.1 6.5-1.2 8.6 1.9 2.1 5.5.5 6.2-2.9.3.9 1.5 1.1 2 .3.4-.6.4-1.5.1-2.1-.2-.2-.1-.3 0 0 1.2 1 3.3-.1 3.6-2.2-.9 5.5 4.1 10.3 7.8 7.5-1.1 2.3.3 5.4 2.2 6 1.9.6 3.9-.5 5.8-1.8 1.8-1.2 3.7-2.7 5.7-2.8 1.7-.1 3.3.9 5 1.5 5.3 1.8 11.4-.6 15.4-6.1 2.7 4.5 9.2 2.9 11-2.8.4 2.7 2.2 4.7 4.2 4.7s4.1-1.9 4.8-4.6c0 2.5 2.3 3.7 3.9 2.1 2-2.1 3.3-5.8 2.3-8.9 2.7-.1 5.4-3.3 5.8-6.9.4-3.7-1.4-7.3-4.1-8.1 4.5-1.9 8-8 8.2-14.3.2-6.3-3.1-12.1-7.5-13.6-1.7-.6-3.7-.4-5.1 1.1-.5-3.6-2.1-6.8-4.5-8.4-3.8-2.6-9.1-.8-11.9 4 1.4-2.5 1.5-6 .2-8.4-1.3-2.3-3.8-3.3-5.9-2.2-.5-3.8-3.4-6.6-6.3-5.8-2.9.7-5.2 4.8-5 8.7-.3-3.1-4-3.9-5.3-1.3.1.2-.1.1 0 0-1.8-3.9-5.6-5.8-9-4.7-3.7 1.2-6.8 5.8-7.3 10.9-2.5-2.3-6.3-2.2-9 .2-2.7 2.5-4.3 7.1-3.8 11.3-2.9-2.8-7.7-1.3-9.7 3.1-2 4.4-.6 10.6 2.7 12.4-2.3.3-4.3 3.4-4.3 6.5s2 5.7 4.3 5.6c-2.3.2-4.5 2.9-4.8 6.1-.3 3.5 1.3 6.6 3.5 7.3z"/><g class="st5"><path class="st3" d="M217.3 244.1c-1.2-1-2.6-1.4-4-1-1.4.4-2.7 1.9-3 3.7-.3 1.8.5 3.8 1.9 4.1 1.7.4 3.4-1.5 5.1-1.3.6.1 1.2.4 1.8.6 2.5.7 5-1.5 7.1-3.6.7-.7 1.5-1.5 2-2.5s.7-2.3.3-3.3c-.6-1.3-2.1-1.5-3.4-1.2-2.5.5-5 2-7 4.1.1-.5.1-1 .2-1.5l-1 1.9zM253.4 239.2c-.7-.6-1.3-1.1-2.1-1.3-.8-.2-1.7.1-2.3.9-.7 1.2-.3 2.9.6 3.8.9.8 2 1 3.1 1.2 1.1.2 2.6.1 3.2-1.2.4-1 .1-2.2-.5-2.9-.6-.7-1.4-1-2.2-1.3l.2.8zM196.9 218.8c-2.3 1.4-4.1 4.2-4.7 7.3-.2.9-.2 2.1.5 2.6.4.3 1 .1 1.6 0l6.6-2.4c-1.1.6-2.2 1.2-3 2.2-.9 1-1.5 2.5-1.2 3.9.3 1.6 1.7 2.5 3 2.4 1.3-.1 2.6-1 3.7-2.1 1.2-1.1 2.3-2.6 2.4-4.5.1-1.8-1.7-3.4-2.8-2.1 2.5-1 5-2.6 7.2-4.5.8-.7 1.6-1.5 2.1-2.6s.7-2.4.3-3.4c-2.2-5.1-5.2 2.8-6.6 3.5-2.8 1.4-5.7-2.3-9.1-.3zM186.2 241.7c-.3 1-.1 2.3.5 2.9.6.6 1.8.3 2.1-.7-1.5.7-3.1 1.4-4 3.1-.9 1.6-.8 4.4.7 4.9.9.3 1.9-.3 2.8-.9 2.4-1.8 4.7-3.9 6.9-6.1-.7 2 .8 4.1 2.5 4.1 1.6.1 3.2-1.1 4.6-2.3 1.8-1.4 3.8-3.6 3.4-6.1-.4-2.2-2.5-3-4.2-2.3-1.7.7-3 2.6-4.2 4.3 1-1.8-.3-4.3-1.9-4.4-1.6-.2-3.2 1.1-4.2 2.7 1.9-1.4 2.3-4.8-.1-5-1.7-.2-4.5 4.1-4.9 5.8zM236.7 231.1c-1.4-.6-3.1.7-3.5 2.5-.4 1.8.6 3.9 2.1 4.1-1.1.2-2.1.9-2.8 2-.4.6-.7 1.4-.6 2.1.1 1.1 1 1.8 1.9 1.8.9 0 1.8-.6 2.6-1.1-.9.2-1.8.3-2.5 1.1-.7.7-1 2.2-.4 3 .5.6 1.4.5 2.1.2 1.6-.7 3.1-1.8 4.4-3.4.9 1.2 2.2 2.1 3.6 1.7 1.4-.4 2.5-2.3 2.1-3.9-.3-1.2-1.2-1.8-2.2-1.9-1-.1-1.9.3-2.9.7 1-.9 2-1.9 2.4-3.4.4-1.4-.3-3.3-1.5-3.1-1.3.2-2 2.5-3.1 3.4-1.3-1.3 1.1-4.6-1.7-5.8zM213.3 225.6c-1.5 1.4-2.1 3.9-2 6.2.1 2.5.9 5.2 2.7 6.1 2.4 1.2 5.4-1.5 5.9-4.8s-1.1-6.5-3.4-7.9c0 0-1.7-.9-3.2.4zM230.1 221.9l.6.6c-1-1.6-3.1-1.7-4.3-.2-1.2 1.5-1.3 4.2-.1 5.6 1.2 1.3 3.3 1 4.4-.7 1.7.9 4 .4 5.2-1.6 1.2-1.9 1-5.2-.6-6.3-1.6-1.1-4.2.9-4 3.3-.2-.3-.5-.6-.7-1l-.5.3zM248.4 224.6c-1.2 1.6-2.5 3.2-2.9 5.3-.5 2.1.2 4.6 1.8 5 1.6.4 3.1-1.4 4.1-3.2.8-1.6 1.5-3.6 1.1-5.4-.4-1.8-2.4-2.7-3.5-1.3l-.6-.4zM222.1 213.9c-.6-1.7-2.5-2.2-3.7-1.1-1.3 1.1-1.8 3.3-1.3 5 .5 1.7 1.9 2.8 3.3 2.9 1.8.1 4-1.9 3.6-4.1.8 1.3 2.1 1.7 3.4 1.5 1.3-.2 2.5-1.1 3.6-1.9 1.5-1.2 3.2-3 3.1-5.2-.1-1.8-1.4-3-2.8-3.1-1.4-.1-2.8.8-3.9 2-.9 1-1.6 2.1-2.5 3-.9.9-2.2 1.4-3.1.7l.3.3z"/></g><path style="fill:#5ae4a7;stroke:#1a2e35;stroke-linecap:round;stroke-linejoin:round;stroke-miterlimit:10" d="M292.7 275.8h230.7v97.1H292.7z"/><path class="st6" d="M297.5 281.7h21.7v12h-21.7zM483.8 340.3H518v12h-34.2zM496.9 296.7H518v12h-21.1zM297.5 325.4h21.7v12h-21.7zM297.5 311h17.6v12h-17.6zM297.5 296.3h12v12h-12zM312.8 296.3h12v12h-12zM328.1 296.3h12v12h-12zM343.5 296.3h12v12h-12zM358.8 296.3h12v12h-12zM374.1 296.3h12v12h-12zM389.5 296.3h12v12h-12zM404.8 296.3h12v12h-12zM420.1 296.3h12v12h-12zM435.5 296.3h12v12h-12zM450.8 296.3h12v12h-12zM466.1 296.3h12v12h-12zM481.5 296.3h12v12h-12zM297.5 355.1h12v12h-12zM312.8 355.1h12v12h-12zM328.1 355.1h12v12h-12zM343.5 355.1h14.7v12h-14.7zM361.5 355.1h73.3v12h-73.3zM459.5 355.1h12v12h-12zM474.8 355.1h12v12h-12zM490.2 355.1h12v12h-12zM437.8 355.1h18.7v12h-18.7zM506 355.1h12v12h-12zM318.5 311h12v12h-12zM333.8 311h12v12h-12zM349.1 311h12v12h-12zM364.5 311h12v12h-12zM379.8 311h12v12h-12zM395.1 311h12v12h-12zM410.5 311h12v12h-12zM425.8 311h12v12h-12zM441.1 311h12v12h-12zM456.5 311h12v12h-12zM471.8 311h12v12h-12zM487.1 311h12v12h-12zM518 311v26.6h-12V323h-3.5v-12zM322 325.6h12v12h-12zM337.3 325.6h12v12h-12zM352.6 325.6h12v12h-12zM368 325.6h12v12h-12zM383.3 325.6h12v12h-12zM398.6 325.6h12v12h-12zM414 325.6h12v12h-12zM429.3 325.6h12v12h-12zM444.6 325.6h12v12h-12zM460 325.6h12v12h-12zM475.3 325.6h12v12h-12zM490.6 325.6h12v12h-12zM315.5 340.3h12v12h-12zM330.8 340.3h12v12h-12zM346.1 340.3h12v12h-12zM361.5 340.3h12v12h-12zM376.8 340.3h12v12h-12zM392.1 340.3h12v12h-12zM407.5 340.3h12v12h-12zM422.8 340.3h12v12h-12zM438.1 340.3h12v12h-12zM453.5 340.3h12v12h-12zM468.8 340.3h12v12h-12zM322 282.4h12v12h-12zM337.3 282.4h12v12h-12zM352.6 282.4h12v12h-12zM368 282.4h12v12h-12zM383.3 282.4h12v12h-12zM398.6 282.4h12v12h-12zM414 282.4h12v12h-12zM429.3 282.4h12v12h-12zM444.6 282.4h12v12h-12zM460 282.4h12v12h-12zM475.3 282.4h12v12h-12zM490.6 282.4h12v12h-12zM506 282.4h12v12h-12zM297.5 340.3h14.6v12h-14.6z"/><path class="st9" d="m292.7 276.4 4.8-1.6h222.7l3.2 1.6z"/><path class="st5" d="m457.3 443-4.7-28.3c-1-4.2-3.2-8-6.3-11.1-9.3-9-21.7-18.2-22.2-30-.8-18-3.6-17.5-3.3-21.9 0-.2 1.4-2.1 3.2-6.6.6-1.4 1-3.6 1.4-5.3.4-1.9 2.2-3.1 4-2.9 1.3.2 2.5.7 3.4 1.6 1.7 1.7 2.5 4.1 2.5 6.5.1 2.4-.5 4.7-1 7.1 1.7 3.8 2.5 8.3 3 12.4 1.1-3.3 1.9-6.6 3-9.9.2-.1.1-.4.4-.5-1.5-3.2-.2-3.1-3.2-10.2-5-12-10.6-23.6-14.6-38.7-.3-1.2-.3-3.1.1-4.2 1.4-4.3 5.9-3.3 7.8-.8.5.7.9 1.4 1.2 2.2 2 5.4 6.4 13.7 9.6 18.5l10.9 16.6s3.8-3.1 4.4-4.5c.6-1.4.9-12.7.9-12.7s-.9 2.1-2.8 2c-1.4-.1-4.2.7-6.2-1.5-1.6-1.8-1.6-4.6-.2-6.5l4.9-6.7s3.3-2.9 7.7-.9 8.7 6.1 8.7 6.1 4.1-.2 7.6 1.5 7.1 6.5 7.1 6.5 4.1.3 5.9 1.6c.5.3 6.7 10 4.4 17.5-1.3 4.5-2.1 11-2.8 12.8l-3 44.1 6.1 29-13.1 7.3c-4.8 2.7-9.9 5-15.1 6.8l-9.7 3.1z"/><defs><path id="XMLID_2_" d="m494.6 391.5.1-44.2c.5-1.8.9-8.3 1.9-12.9 1.7-7.7-5.1-16.9-5.6-17.2-1.9-1.2-6-1.2-6-1.2s-4-4.6-7.6-6c-3.6-1.4-7.7-1-7.7-1s-4.5-3.8-9.1-5.5c-4.5-1.7-7.7 1.4-7.7 1.4l-4.5 7c-1.3 2.1-1.1 4.8.6 6.5 2.1 2.1 4.9 1.1 6.3 1.1 1.9 0 2.6-2.2 2.6-2.2s.5 11.3 0 12.7c-.5 1.4-4.1 4.8-4.1 4.8l-12-15.8c-3.5-4.6-8.4-12.6-10.8-17.8-.4-.8-.8-1.5-1.3-2.1-2.1-2.4-6.6-3.1-7.8 1.3-.3 1.2-.2 3.1.2 4.2 5 14.8 11.4 25.9 17.2 37.6 3.5 6.9 2.2 6.8 3.9 10-.2.1-.1.4-.3.5-.8 3.4-1.4 6.7-2.3 10.1-.8-4-1.9-8.5-3.8-12.2.4-2.4.8-4.7.5-7.1-.2-2.4-1.1-4.8-3-6.3-.9-.8-2.2-1.3-3.5-1.4-1.9-.1-3.6 1.2-3.8 3.1-.3 1.8-.5 3.9-1 5.4-1.5 4.6-2.8 6.6-2.8 6.8 0 4.5 2.8 3.7 4.8 21.7 1.6 14 19.6 23.2 29.4 33.3l10.4 32.9c12.1-4.9 23.7-11.1 34.9-18.3l-8.1-29.2z"/></defs><use xlink:href="#XMLID_2_" style="overflow:visible;fill:#fff"/><clipPath id="XMLID_6_"><use xlink:href="#XMLID_2_" style="overflow:visible"/></clipPath><g class="st10"><path class="st1" d="M489.5 331.5c.5-1.3 1.2-2.6 2.3-3.5 1.1-.8 2.9-.9 3.8.1-.7-2.3-1.5-4.6-2.4-6.8-.6-1.7-1.4-3.5-2.8-4.7-1.4-1.2-3.8-1.4-5 0 .9 5.2 1 10.6.3 15.8-.4 2.8-.8 6.1 1.1 8.2.5.4 1.4-.3 1.1-.9-.2-.3-.7-.3-1-.3.7-2.7 1.6-5.4 2.6-7.9z"/><path class="st1" d="M489.5 331.5c.5-1.3 1.2-2.6 2.3-3.5 1.1-.8 2.9-.9 3.8.1-.7-2.3-1.5-4.6-2.4-6.8-.6-1.7-1.4-3.5-2.8-4.7-1.4-1.2-3.8-1.4-5 0 .9 5.2 1 10.6.3 15.8-.4 2.8-.8 6.1 1.1 8.2.5.4 1.4-.3 1.1-.9-.2-.3-.7-.3-1-.3.7-2.7 1.6-5.4 2.6-7.9z"/><path class="st11" d="M489.5 331.5c.5-1.3 1.2-2.6 2.3-3.5 1.1-.8 2.9-.9 3.8.1-.7-2.3-1.5-4.6-2.4-6.8-.6-1.7-1.4-3.5-2.8-4.7-1.4-1.2-3.8-1.4-5 0 .9 5.2 1 10.6.3 15.8-.4 2.8-.8 6.1 1.1 8.2.5.4 1.4-.3 1.1-.9-.2-.3-.7-.3-1-.3.7-2.7 1.6-5.4 2.6-7.9z"/><path class="st1" d="M473.6 326.7c.1 1.9.1 3.9.5 5.7.5 1.9 1.5 3.7 3.2 4.6-1-3.7-.5-7.7.1-11.5.3-2.3.7-4.6 1-7 .1-.8.2-1.6.7-2.3.5-.7 1.4-1.1 2.1-.8-1 .6-2.3-.2-2.9-1.2-.6-1-.8-2.2-1.5-3.1-1.3-1.7-4.2-2.1-6.2-1.6.6 5.9 2.7 11.3 3 17.2z"/><path class="st1" d="M473.6 326.7c.1 1.9.1 3.9.5 5.7.5 1.9 1.5 3.7 3.2 4.6-1-3.7-.5-7.7.1-11.5.3-2.3.7-4.6 1-7 .1-.8.2-1.6.7-2.3.5-.7 1.4-1.1 2.1-.8-1 .6-2.3-.2-2.9-1.2-.6-1-.8-2.2-1.5-3.1-1.3-1.7-4.2-2.1-6.2-1.6.6 5.9 2.7 11.3 3 17.2z"/><g class="st12"><path class="st3" d="M473.6 326.7c.1 1.9.1 3.9.5 5.7.5 1.9 1.5 3.7 3.2 4.6-1-3.7-.5-7.7.1-11.5.3-2.3.7-4.6 1-7 .1-.8.2-1.6.7-2.3.5-.7 1.4-1.1 2.1-.8-1 .6-2.3-.2-2.9-1.2-.6-1-.8-2.2-1.5-3.1-1.3-1.7-4.2-2.1-6.2-1.6.6 5.9 2.7 11.3 3 17.2z"/></g><path class="st1" d="M457.2 311.3c-.6-.5-.9-1.3-1.1-2.1-.2-.8-.5-1.6-1.2-2-3.1 1.9-1.4 7.7-4.5 9.6-.6.4-1.4.6-1.7 1.2-.3.6-.1 1.3.3 1.8s1.1.7 1.7.8c2.5.4 5.1-.8 6.5-2.8 1.2-1.7 2.1-4.4 1.5-6.4-.3.1-1 .2-1.5-.1zM425.3 348.7c-.1.2-.1.5.1.6.3.2.6-.1.8-.4 1.3-1.8 3.8-2.7 6-1.9.8 0 1.1-1.2.6-1.9-.5-.6-1.4-.7-2.2-.7-.8 0-1.7 0-2.4-.4-.8-.5-1.2-1.6-1-2.5-.6 2.4-1.3 4.8-1.9 7.2z"/><g class="st12"><path class="st3" d="M457.2 311.3c-.6-.5-.9-1.3-1.1-2.1-.2-.8-.5-1.6-1.2-2-3.1 1.9-1.4 7.7-4.5 9.6-.6.4-1.4.6-1.7 1.2-.3.6-.1 1.3.3 1.8s1.1.7 1.7.8c2.5.4 5.1-.8 6.5-2.8 1.2-1.7 2.1-4.4 1.5-6.4-.3.1-1 .2-1.5-.1zM425.3 348.7c-.1.2-.1.5.1.6.3.2.6-.1.8-.4 1.3-1.8 3.8-2.7 6-1.9.8 0 1.1-1.2.6-1.9-.5-.6-1.4-.7-2.2-.7-.8 0-1.7 0-2.4-.4-.8-.5-1.2-1.6-1-2.5-.6 2.4-1.3 4.8-1.9 7.2z"/></g><path class="st1" d="M466 310.5c-1.7-.2-3.6-.3-5.1-1.2-1.9-1.1-3.2-3.5-5.4-3.6-2-.1-3.4 1.7-4.5 3.3-.1-2.4 1.7-4.7 3.9-5.6 2.3-.9 4.9-.6 7.2.3 2.3.9 4.3 2.4 6.2 3.9.8.6 1.6 1.2 2.1 2 2.4 3.9-2.8 1.1-4.4.9z"/><path class="st11" d="M466 310.5c-1.7-.2-3.6-.3-5.1-1.2-1.9-1.1-3.2-3.5-5.4-3.6-2-.1-3.4 1.7-4.5 3.3-.1-2.4 1.7-4.7 3.9-5.6 2.3-.9 4.9-.6 7.2.3 2.3.9 4.3 2.4 6.2 3.9.8.6 1.6 1.2 2.1 2 2.4 3.9-2.8 1.1-4.4.9z"/></g><g class="st10"><path class="st1" d="M434.8 367.3c.1-.2.2-.4.3-.7-.2.2-.4.4-.3.7z"/><path class="st1" d="M437.7 351.8c-.2-2.5.2-4.9.1-7.4s-.7-5.1-2.5-6.8c-2.6-2.4-9.6-1.2-7.3 3.4.7 1.3 2.4 1.9 3.7 1.4 1.3-.6 2-2.4 1.2-3.6 2.9 4.3 2.6 10.5-.6 14.6 3.7 3.2 4.8 8.9 2.8 13.3.4-.3 1.2-.4 1.6 0 .7.5.9 1.5 1.3 2.3.3.8 1 1.6 1.9 1.6 1.2-2.9.8-6.3 0-9.4-.8-3.2-1.9-6.2-2.2-9.4zM463.6 305.5c-1.4-1.1-3-1.8-4.7-2l4.7 2zM475.4 336.8c-.4-1.7-1.2-3.3-1.6-5-1.1-3.9-.4-8.1-.9-12.1-.6-5.2-3.4-10.1-7.4-13.5l-1.8-.8c1.7 1.3 3 3.2 3.6 5.2 1.4 4.8 1.8 9.8 2.4 14.7.9 7.6 2.3 15.2 4.2 22.6 1.1-3.5 2.3-7.4 1.5-11.1zM456.3 319c1.2-1 1.9-2.5 2.1-4.1.2-1.4.1-2.8-.1-4.2-.1.6-.9 1.1-1.6.9-.9-.2-1.4-1-1.9-1.7-.1.4-.2.8-.4 1.3 0-.2-.1-.5-.1-.7l-.5.6c.7 2 1.4 4.3.3 6.2-.5.9-1.4 1.5-2.3 2.1 1.4.8 3.3.6 4.5-.4zM458.3 310.1c0 .2 0 .3.1.5-.1-.1-.1-.3-.1-.5zM453 330.4c-3.5-6.9-7-13.8-10.9-20.5-2.3-3.9-4.6-7.8-7.6-11.2-1.3-1.5-5.2-5-7.3-2.7-1.4 1.5.4 4.3-1.3 5.9.4 0 2.4-.2 2.6.1 4.4 5.4 6.8 12.4 6.7 19.4 1.4-1.1 3.3.4 4.4 1.8 6.8 8.7 13.1 17.8 19 27.1-1.1-4.1-1.2-8.5-2.4-12.6-.7-2.5-1.9-4.9-3.2-7.3z"/><path class="st1" d="M493.8 347.2c1.7-4.5 3-9.1 3.1-13.8.1-4.3-.9-8.8-3.1-12.5-.6-.9-3-4.8-4.3-4.5-2.3.6.7 4.6 1.3 5.7 2 3.8 4.1 7.9 4 12.3-.1 3.4-1.5 6.5-2.6 9.7-.8 2.2-1.4 4.6-1.4 6.9-.2.3-.3.5-.5.8-1.6 2-3.7 3.7-6.3 4.1 1-3 1.9-6 2.9-8.9.3-1.1.5-2.5-.1-3.3.2-.4.3-.8.3-1.3 0-.8-.5-1.6-.8-2.3-1.3-2.9-.9-6.2-.6-9.4.4-3.9.6-7.9-.6-11.7-1.1-3.7-3.8-7.2-7.5-8.5.3.3.6.7 1 1l-1.3-.9c.8 1.6 1.6 3.3 2.3 4.9l-.9 1.2c1.3-.7 2.9.3 3.5 1.6.6 1.3.4 2.9.3 4.3-.8 8.1-.4 16.3 1.2 24.3-.1 1.9-.5 3.7-1.4 5.3-1 1.7-3 3-5 2.7.4-1.9-.3-4.2-1.9-5.3-2 2.8-.8 7.1-.5 10.3.5 4.8 1.2 9.6 2.3 14.4.3-4.1 1.2-8.2 2.6-12 1.1 3.9 2.2 7.9 3.3 11.8 0-1.1.1-2.3.6-3.2.5-1 1.7-1.7 2.8-1.3.8.3 1.3 1.2 1.7 2.1 2.8 6.8 3.5 14.4 2 21.6 1.3.7 3.1-.2 3.9-1.5.7-1.3.7-3 .7-4.5-.6-13.4-.8-26.8-1-40.1zM459.9 351.4c-.6 1.1 2 5.6 2.4 6.6 2.2 5.4 4.4 10.8 6.6 16.1-.7-7.1-2.5-14.1-5.1-20.7-.5-1-2.7-4.2-3.9-2zM463.3 322.9c-.4.6-.9 1.3-1.6 1.1-.6-.2-.7-1-.7-1.6.1-3.7.1-7.5.2-11.2-3 2.2-2.6 5-2.8 8.2-.1 1.9.4 10.8-.9 11.9 3-2.5 5.5-5.6 7.4-9.1-.5-.5-1.2.1-1.6.7z"/><g class="st12"><path class="st3" d="M434.8 367.3c.1-.2.2-.4.3-.7-.2.2-.4.4-.3.7z"/><path class="st3" d="M437.7 351.8c-.2-2.5.2-4.9.1-7.4s-.7-5.1-2.5-6.8c-2.6-2.4-9.6-1.2-7.3 3.4.7 1.3 2.4 1.9 3.7 1.4 1.3-.6 2-2.4 1.2-3.6 2.9 4.3 2.6 10.5-.6 14.6 3.7 3.2 4.8 8.9 2.8 13.3.4-.3 1.2-.4 1.6 0 .7.5.9 1.5 1.3 2.3.3.8 1 1.6 1.9 1.6 1.2-2.9.8-6.3 0-9.4-.8-3.2-1.9-6.2-2.2-9.4zM463.6 305.5c-1.4-1.1-3-1.8-4.7-2l4.7 2zM475.4 336.8c-.4-1.7-1.2-3.3-1.6-5-1.1-3.9-.4-8.1-.9-12.1-.6-5.2-3.4-10.1-7.4-13.5l-1.8-.8c1.7 1.3 3 3.2 3.6 5.2 1.4 4.8 1.8 9.8 2.4 14.7.9 7.6 2.3 15.2 4.2 22.6 1.1-3.5 2.3-7.4 1.5-11.1zM456.3 319c1.2-1 1.9-2.5 2.1-4.1.2-1.4.1-2.8-.1-4.2-.1.6-.9 1.1-1.6.9-.9-.2-1.4-1-1.9-1.7-.1.4-.2.8-.4 1.3 0-.2-.1-.5-.1-.7l-.5.6c.7 2 1.4 4.3.3 6.2-.5.9-1.4 1.5-2.3 2.1 1.4.8 3.3.6 4.5-.4zM458.3 310.1c0 .2 0 .3.1.5-.1-.1-.1-.3-.1-.5zM453 330.4c-3.5-6.9-7-13.8-10.9-20.5-2.3-3.9-4.6-7.8-7.6-11.2-1.3-1.5-5.2-5-7.3-2.7-1.4 1.5.4 4.3-1.3 5.9.4 0 2.4-.2 2.6.1 4.4 5.4 6.8 12.4 6.7 19.4 1.4-1.1 3.3.4 4.4 1.8 6.8 8.7 13.1 17.8 19 27.1-1.1-4.1-1.2-8.5-2.4-12.6-.7-2.5-1.9-4.9-3.2-7.3z"/><path class="st3" d="M493.8 347.2c1.7-4.5 3-9.1 3.1-13.8.1-4.3-.9-8.8-3.1-12.5-.6-.9-3-4.8-4.3-4.5-2.3.6.7 4.6 1.3 5.7 2 3.8 4.1 7.9 4 12.3-.1 3.4-1.5 6.5-2.6 9.7-.8 2.2-1.4 4.6-1.4 6.9-.2.3-.3.5-.5.8-1.6 2-3.7 3.7-6.3 4.1 1-3 1.9-6 2.9-8.9.3-1.1.5-2.5-.1-3.3.2-.4.3-.8.3-1.3 0-.8-.5-1.6-.8-2.3-1.3-2.9-.9-6.2-.6-9.4.4-3.9.6-7.9-.6-11.7-1.1-3.7-3.8-7.2-7.5-8.5.3.3.6.7 1 1l-1.3-.9c.8 1.6 1.6 3.3 2.3 4.9l-.9 1.2c1.3-.7 2.9.3 3.5 1.6.6 1.3.4 2.9.3 4.3-.8 8.1-.4 16.3 1.2 24.3-.1 1.9-.5 3.7-1.4 5.3-1 1.7-3 3-5 2.7.4-1.9-.3-4.2-1.9-5.3-2 2.8-.8 7.1-.5 10.3.5 4.8 1.2 9.6 2.3 14.4.3-4.1 1.2-8.2 2.6-12 1.1 3.9 2.2 7.9 3.3 11.8 0-1.1.1-2.3.6-3.2.5-1 1.7-1.7 2.8-1.3.8.3 1.3 1.2 1.7 2.1 2.8 6.8 3.5 14.4 2 21.6 1.3.7 3.1-.2 3.9-1.5.7-1.3.7-3 .7-4.5-.6-13.4-.8-26.8-1-40.1zM459.9 351.4c-.6 1.1 2 5.6 2.4 6.6 2.2 5.4 4.4 10.8 6.6 16.1-.7-7.1-2.5-14.1-5.1-20.7-.5-1-2.7-4.2-3.9-2zM463.3 322.9c-.4.6-.9 1.3-1.6 1.1-.6-.2-.7-1-.7-1.6.1-3.7.1-7.5.2-11.2-3 2.2-2.6 5-2.8 8.2-.1 1.9.4 10.8-.9 11.9 3-2.5 5.5-5.6 7.4-9.1-.5-.5-1.2.1-1.6.7z"/></g></g><path class="st13" d="M470.9 310.6c1.8 6.5 2.7 13.3 2.7 20 0 1.1 0 2.3.4 3.4s1.2 2.1 2.3 2.3M485.1 317.2c3 6.3-.1 20.2.2 21.2.2 1 .8 1.9 1.7 2.4M459.3 309.8c-.3 2-.6 4.3-1 6.3-2.3-2-3.8-4.9-4-8M440.1 363.1c-.7.3-1.4.6-2.2 1M440.7 364.9c-.4 1.7-.4 3.4 0 5.1M453.3 346.2c.8 1.4 1.6 2.9 2.4 4.3M457.9 330.4c.8-1.1 1.6-2.2 2.4-3.4M491.4 346.2c-.2.9-.5 1.8-.7 2.6"/><path class="st13" d="M485.6 339c.7-2.2 1.4-4.5 2.1-6.7M492.6 327.1c1.2-.7 3-.2 3.6 1.1M478.3 315.6c1.7-.5 3.5 0 4.8 1.1M433.7 322.2c1.5-1.7 3.9-2.6 6.2-2.3M424.7 303.4c1.4-1 3.3-1.5 5-1.2"/><path class="st3" d="M426.5 348.1c-1.2.9-2.2 2-2.9 3.3l2.9-3.3z"/><path class="st13" d="M427.5 343.6c1.6-1.1 4.1 1.4 5.6.1.6-.5.6-1.4.5-2.2-.1-.8-.4-1.5-.3-2.3M472.1 336.7c1.9 3.9 2.3 8.6 1.1 12.8M483.7 342.8c.3 1.9 0 3.9-1 5.5"/><path class="st14" d="m468.1 439.1-10.4-32.9c-9.8-10.1-27.8-19.3-29.4-33.3-2-17.9-4.8-17.2-4.8-21.7 0-.2 1.3-2.2 2.8-6.8.5-1.5.7-3.6 1-5.4.3-1.9 1.9-3.3 3.8-3.1 1.3.1 2.5.6 3.5 1.4 1.8 1.5 2.7 3.9 3 6.3.2 2.4-.1 4.8-.5 7.1 1.9 3.6 3 8.1 3.8 12.2.8-3.4 1.4-6.7 2.3-10.1.2-.1.1-.4.3-.5-1.7-3.1-.4-3-3.9-10-5.8-11.6-12.2-22.8-17.2-37.6-.4-1.1-.5-3.1-.2-4.2 1.2-4.4 5.7-3.7 7.8-1.3.6.6 1 1.3 1.3 2.1 2.4 5.2 7.3 13.2 10.8 17.8l12 15.8s3.6-3.3 4.1-4.8c.5-1.4 0-12.7 0-12.7s-.7 2.2-2.6 2.2c-1.4 0-4.1 1-6.3-1.1-1.7-1.7-1.9-4.5-.6-6.5l4.5-7s3.1-3.1 7.7-1.4c4.5 1.7 9.1 5.5 9.1 5.5s4.1-.5 7.7 1c3.6 1.4 7.6 6 7.6 6s4.1 0 6 1.2c.5.3 7.3 9.5 5.6 17.2-1 4.6-1.4 11.1-1.9 12.9l-.1 44.2 8.3 29.3"/><path class="st14" d="M470.9 310.6c1.8 6.5 2.7 13.3 2.7 20 0 1.1 0 2.3.4 3.4s1.2 2.1 2.3 2.3M485.1 317.2c3 6.3-.1 20.2.2 21.2.2 1 .8 1.9 1.7 2.4M459.3 309.8c-.3 2-.6 4.3-1 6.3-2.3-2-3.8-4.9-4-8M440.1 363.1c-.7.3-1.4.6-2.2 1M440.7 364.9c-.4 1.7-.4 3.4 0 5.1M453.3 346.2c.8 1.4 1.6 2.9 2.4 4.3M457.9 330.4c.8-1.1 1.6-2.2 2.4-3.4M491.4 346.2c-.2.9-.5 1.8-.7 2.6"/><path class="st14" d="M485.6 339c.7-2.2 1.4-4.5 2.1-6.7M492.6 327.1c1.2-.7 3-.2 3.6 1.1M478.3 315.6c1.7-.5 3.5 0 4.8 1.1M433.7 322.2c1.5-1.7 3.9-2.6 6.2-2.3M424.7 303.4c1.4-1 3.3-1.5 5-1.2M426.5 348.1c-1.2.9-2.2 2-2.9 3.3M427.5 343.6c1.6-1.1 4.1 1.4 5.6.1.6-.5.6-1.4.5-2.2-.1-.8-.4-1.5-.3-2.3M472.1 336.7c1.9 3.9 2.3 8.6 1.1 12.8M483.7 342.8c.3 1.9 0 3.9-1 5.5"/><path class="st5" d="M387 357.8c.1.7.1 1.4-.1 2.1-.6 3-2.5 11.8-3.2 16.6-.8 5.9-10.3 24-10.3 24s-8.7 10.8-13.2 16.5c-2.2 2.8-5.6 14-8.6 24.7-3.7-1.1-7.4-2.3-11-3.6-3-1.1-6-2.2-9-3.4-4.2-1.6-9.5-4.3-15.6-7.6 1.7-6 2.8-10.7 2.8-10.9 0-.6 3.6-7.6 3.6-7.6l-3.1-41.4-1.9-6.3c-1-3.3-1.6-6.6-1.8-10-.4-5.1 0-10.3 1.3-15.3l5.4-8.1 2.5-.2 7.9-11s4.3-1.3 5.3 1.9c1.1 3.2-3.5 9.2-3.5 9.2l-1.6 9.9 3.8 9.2 2 .7s.7-16.3.2-19.5l4.2-14.9s2.5-5 3.3-7.5c.8-2.5 5.2-5 7.8-.6 0 0 1.4 2.2.4 5.3-1.1 3.1-1.9 5.5-1.9 5.5s-.9 12.6-1.3 12.9c-.3.3 1.9 18.7 1.9 18.7l1.6.7.6-17.5 3.4-16.5s-.3-7.9 5.3-7c0 0 2.6-.3 4.1 2.6 1.5 2.8.1 21.8.1 21.8l1.4 19.6 2.2 15.1 2.6-10.4s.1-14.9 9.5-16.1c0 0 2.8-.5 3.4 1.4.6 1.9-1.4 5.9-1.1 9.7.1 2.8.4 5.8.6 7.3z"/><defs><path id="XMLID_1_" d="M384.2 339.5c-.4-2-3.2-1.7-3.2-1.7-9.4.6-10.7 15.4-10.7 15.4l-3.4 10.1-1.1-15.3.1-19.7s2.9-18.8 1.6-21.8c-1.3-3-3.9-2.9-3.9-2.9-5.5-1.4-5.8 6.5-5.8 6.5l-4.6 16.2-1.9 17.5-1.6-.8s-.7-18.5-.4-18.8c.3-.3 2.2-12.8 2.2-12.8s1-2.3 2.3-5.3c1.3-3 0-5.3 0-5.3-2.2-4.5-6.9-2.4-7.8 0-1 2.4-3.8 7.2-3.8 7.2l-5.3 14.5c.2 3.3-1.7 19.5-1.7 19.5l-1.9-.9-3.1-9.5 2.3-9.7s5.1-5.6 4.2-8.9c-.8-3.3-5.2-2.3-5.2-2.3l-8.7 10.4h-2.5l-6 7.6c-1.6 4.9-2.5 10-2.5 15.2 0 3.4.4 6.8 1.1 10.1l1.4 6.4V402s-4.1 6.7-4.1 7.3c0 .3-1.7 5.5-4.1 12.1 10.4 6.1 19.3 10.8 25.6 13.3 3 1.2 6 2.3 9 3.4 3.8-10.7 8.2-22.1 10.7-24.8 4.9-5.3 14.4-15.4 14.4-15.4s10.8-17.4 12.1-23.1c1-4.7 3.6-13.3 4.5-16.3.2-.7.3-1.4.2-2.1-.1-1.6-.2-4.6-.2-7.3-.1-3.9 2.2-7.7 1.8-9.6z"/></defs><use xlink:href="#XMLID_1_" style="overflow:visible;fill:#fff"/><clipPath id="XMLID_7_"><use xlink:href="#XMLID_1_" style="overflow:visible"/></clipPath><path d="M319.3 335.3c1.6-2 4.9-2.8 6.8-1 1.1 1 1.4 2.6 1.7 4 .3 1.5.5 3 1.5 4.1 1 1.1 2.9 1.6 3.9.5.1 2.2.3 4.4.4 6.6 2.3-4.1 3.5-8.8 3.4-13.4 0-2.3-.4-4.6.1-6.8s2.2-4.4 4.5-4.5c2.5-.1 4.5 2.3 5 4.8s-.1 5-.2 7.5c-.2 3.8.5 7.7 2.2 11.2.5-1.1 1.1-2.1 1.6-3.2.5 2.2 1 4.3 1.4 6.5.4-4.7.8-9.5 1.2-14.2.1-1.3.2-2.7.9-3.9s1.9-2.2 3.2-2c1.8.2 2.8 2.1 3.4 3.8 4.5 12.7 2.6 26.7.7 40.1 1.3.2 2.3-1 2.6-2.3.3-1.2.2-2.6.7-3.7.5-1.2 1.9-2.2 3-1.5 1.6 1 .5 4.1 2.1 4.9.5-4 2.1-7.8 4.5-10.9 1.1-1.4 2.8-2.9 4.5-2.4 1.3.3 2.2 1.7 2.4 3 .2 1.3 2.1-4.2 1.8-2.9.8-7.7-.8-8.5 0-16.2.1-1.4 2.4-3.8 1.4-4.8-.9-1-3.6-2.4-4.8-1.8-1.2.6-5.1 2.5-5.9 3.6-4.9 6.8-4.6 16.6-6.1 24.8-1.3-12.6-2.6-25.3-.3-37.7 1.3-6.8 3.6-14 1.4-20.6-1-3-3.7-6-6.8-5.5-2.5.5-4 3-5.1 5.4-3.4 7.9-5 16.5-6.5 25 1.9-8.5 3.8-17.1 5.6-25.6.5-2.2 1-4.5.6-6.7s-1.9-4.4-4.2-4.9c-2.2-.5-4.4.8-6.1 2.4-5.9 5.4-8.2 13.7-10.1 21.6.7-2 1.4-4.2 1.2-6.3-.2-2.1-1.6-4.3-3.7-4.8-2.7-.6-5.2 1.8-6.4 4.4-1.2 2.5-1.8 5.4-3.7 7.4-1.4-1.6-4-1.5-5.7-.3-1.7 1.2-2.8 3.1-3.6 5-3.1 7-4.5 14.8-3.9 22.5 1.4-3.1 4.9-5.1 8.2-4.7l-.6-5.1" style="clip-path:url(#XMLID_7_);fill:#5ae4a7"/><g style="clip-path:url(#XMLID_7_)"><path class="st1" d="M325.9 351.6c-.1 1.3-.2 2.5-.3 3.8.4-1.1 1.9-1.4 2.8-.7-.2-.8.3-1.6.6-2.3.3-.8.4-1.8-.4-2.2-.9-.4-1.7.6-2.2 1.4 0-.3-.1-.6-.1-.9l-.4.9zM340.2 349.3c-1 1.2-1.7 2.6-2 4.2.4-.4.9-.9 1.5-1.1.6-.2 1.3-.1 1.7.4.2.3.3.7.6.9.3.2.8 0 1-.4.2-.3.2-.7.3-1.1 0-.7.1-1.5-.1-2.2-.2-.7-.7-1.4-1.4-1.5-.7-.2-1.6.4-1.6 1.1v-.3zM354.1 352.7c-1.1 1.5-1.8 3.2-2.1 5 .7-.1 1.4-.6 1.9-1 .6-.5 1.2-.9 2-1s1.6.5 1.6 1.2c-.1-.8 0-1.7.1-2.5s.1-1.7-.2-2.5c-.3-.8-1.1-1.5-1.9-1.4-.8 0-1.6 1-1.2 1.8l-.2.4zM315.9 357.8c-.8 1.4-1.2 3.1-1.2 4.7 0-.8.7-1.4 1.5-1.5.7-.1 1.5.2 2.1.6.1-.8.3-1.5.1-2.3-.2-.8-.7-1.5-1.5-1.6-.8-.1-1.6.6-1.4 1.4-.1-.2-.2-.4-.2-.6l.6-.7z"/></g><path id="XMLID_3_" d="M319.3 335.3c1.6-2 4.9-2.8 6.8-1 1.1 1 1.4 2.6 1.7 4 .3 1.5.5 3 1.5 4.1 1 1.1 2.9 1.6 3.9.5.1 2.2.3 4.4.4 6.6 2.3-4.1 3.5-8.8 3.4-13.4 0-2.3-.4-4.6.1-6.8s2.2-4.4 4.5-4.5c2.5-.1 4.5 2.3 5 4.8s-.1 5-.2 7.5c-.2 3.8.5 7.7 2.2 11.2.5-1.1 1.1-2.1 1.6-3.2.5 2.2 1 4.3 1.4 6.5.4-4.7.8-9.5 1.2-14.2.1-1.3.2-2.7.9-3.9s1.9-2.2 3.2-2c1.8.2 2.8 2.1 3.4 3.8 4.5 12.7 2.6 26.7.7 40.1 1.3.2 2.3-1 2.6-2.3.3-1.2.2-2.6.7-3.7.5-1.2 1.9-2.2 3-1.5 1.6 1 .5 4.1 2.1 4.9.5-4 2.1-7.8 4.5-10.9 1.1-1.4 2.8-2.9 4.5-2.4 1.3.3 2.2 1.7 2.4 3 .2 1.3 2.1-4.2 1.8-2.9.8-7.7-.8-8.5 0-16.2.1-1.4 2.4-3.8 1.4-4.8-.9-1-3.6-2.4-4.8-1.8-1.2.6-5.1 2.5-5.9 3.6-4.9 6.8-4.6 16.6-6.1 24.8-1.3-12.6-2.6-25.3-.3-37.7 1.3-6.8 3.6-14 1.4-20.6-1-3-3.7-6-6.8-5.5-2.5.5-4 3-5.1 5.4-3.4 7.9-5 16.5-6.5 25 1.9-8.5 3.8-17.1 5.6-25.6.5-2.2 1-4.5.6-6.7s-1.9-4.4-4.2-4.9c-2.2-.5-4.4.8-6.1 2.4-5.9 5.4-8.2 13.7-10.1 21.6.7-2 1.4-4.2 1.2-6.3-.2-2.1-1.6-4.3-3.7-4.8-2.7-.6-5.2 1.8-6.4 4.4-1.2 2.5-1.8 5.4-3.7 7.4-1.4-1.6-4-1.5-5.7-.3-1.7 1.2-2.8 3.1-3.6 5-3.1 7-4.5 14.8-3.9 22.5 1.4-3.1 4.9-5.1 8.2-4.7l-.6-5.1" style="opacity:.5;clip-path:url(#XMLID_7_);fill:#fff"/><g style="opacity:.5;clip-path:url(#XMLID_7_)"><path class="st3" d="M325.9 351.6c-.1 1.3-.2 2.5-.3 3.8.4-1.1 1.9-1.4 2.8-.7-.2-.8.3-1.6.6-2.3.3-.8.4-1.8-.4-2.2-.9-.4-1.7.6-2.2 1.4 0-.3-.1-.6-.1-.9l-.4.9zM340.2 349.3c-1 1.2-1.7 2.6-2 4.2.4-.4.9-.9 1.5-1.1.6-.2 1.3-.1 1.7.4.2.3.3.7.6.9.3.2.8 0 1-.4.2-.3.2-.7.3-1.1 0-.7.1-1.5-.1-2.2-.2-.7-.7-1.4-1.4-1.5-.7-.2-1.6.4-1.6 1.1v-.3zM354.1 352.7c-1.1 1.5-1.8 3.2-2.1 5 .7-.1 1.4-.6 1.9-1 .6-.5 1.2-.9 2-1s1.6.5 1.6 1.2c-.1-.8 0-1.7.1-2.5s.1-1.7-.2-2.5c-.3-.8-1.1-1.5-1.9-1.4-.8 0-1.6 1-1.2 1.8l-.2.4zM315.9 357.8c-.8 1.4-1.2 3.1-1.2 4.7 0-.8.7-1.4 1.5-1.5.7-.1 1.5.2 2.1.6.1-.8.3-1.5.1-2.3-.2-.8-.7-1.5-1.5-1.6-.8-.1-1.6.6-1.4 1.4-.1-.2-.2-.4-.2-.6l.6-.7z"/></g><path class="st14" d="M306.1 421.3c2.4-6.5 4.1-11.8 4.1-12.1 0-.6 4.1-7.3 4.1-7.3v-41.6l-1.4-6.4c-.7-3.3-1.1-6.7-1.1-10.1 0-5.1.8-10.3 2.5-15.2l6-7.6h2.5l8.7-10.4s4.3-1 5.2 2.3c.8 3.3-4.2 8.9-4.2 8.9l-2.3 9.7 3.1 9.5 1.9.9s1.9-16.2 1.7-19.5l5.3-14.5s2.9-4.8 3.8-7.2c1-2.4 5.6-4.5 7.8 0 0 0 1.3 2.3 0 5.3s-2.3 5.3-2.3 5.3-1.9 12.5-2.2 12.8c-.3.3.4 18.8.4 18.8l1.6.8 1.9-17.5 4.6-16.2s.3-7.9 5.8-6.5c0 0 2.6-.1 3.9 2.9 1.3 3-1.6 21.8-1.6 21.8l-.1 19.7 1.1 15.3 3.4-10.1s1.3-14.8 10.7-15.4c0 0 2.8-.3 3.2 1.7.4 2-1.8 5.8-1.8 9.6 0 2.7.1 5.7.2 7.3 0 .7 0 1.4-.2 2.1-.9 3-3.4 11.6-4.5 16.3-1.3 5.8-12.1 23.1-12.1 23.1s-9.5 10.2-14.4 15.4c-2.5 2.7-6.9 14.1-10.7 24.8"/><path class="st6" d="M334.9 343.6c.6 2 0 4.2-1.4 5.7M318.8 357.6c1.4-2.1 2.7-5 2.3-7.6-.7-4.9-3-10.6-2-15.4.6-3.1 1.3-6.2 1.9-9.3"/><path class="st14" d="M358.7 311.2c1.6-.4 3.4-.4 5 0 0-.5 0-.9.1-1.4M345.6 304.9c1 .7 2.3.8 3.4.2 1-.6 1.7-1.7 1.7-2.9M381.7 339.6c-2.8.6-4.9 3.5-4.6 6.3.8.2 1.6.5 2.5.7"/><path class="st6" d="M349.5 340.9c.1 1.7-.1 5.7 0 7.4M351.4 343.2c-.2 2.7-.4 5.5-.6 8.2v-1M366.6 366.4c.7 3 .4 6.3-.9 9.1"/><path class="st14" d="M341.3 351.9c-2.2 2.4-1.9 8.1-.3 11.3M357.4 355.9c.1 2.6-.9 5.2-2.7 7.3M325.4 353.1c-.4 2.4.2 4.9 1.5 7M316.1 360.6c-.1 1.9.4 3.8 1.5 5.3M328.8 314.5c1.1-.5 2.6-.3 3.5.6.4-.5.8-1.1 1.2-1.6M339.1 321.8c1.7-1.1 4.1-.6 5.3.9M355.1 326.8c1.8-.8 3.9-.8 5.7.1M319.5 335.2c1-1.8 3.2-2.9 5.2-2.6M312.7 344.8c0-1.3 1.1-2.5 2.4-2.7"/><circle class="st19" cx="570.4" cy="231.4" r="41.4"/><path class="st5" d="M617.3 232.5c-8.8 14.5-12 12.5-42.1 27-15.3 7.3-30.1-16.2-20.1-40.4.5-1.2 4.8-7.1 4.8-7.1 1.8-8 8.5-14.7 16.5-16.6 8-1.9 16.9 1.1 22.1 7.5 5.7-5 13.9-6.9 21.2-5.1.3 1 .7 2 1 3 .1.4.3.8.4 1.1.4 1.2.7 2.3 1.1 3.5.7 2.2 1.3 4.5 1.8 6.8-3.3-.9-6.7-.9-9.8.6-2.2 1.1-4.1 2.9-6.4 3.7-2.3.9-5.5.4-6.4-1.9 1.1 4.6 6 3.2 10.6 4.2 7.2 1.3 9.1 7.6 5.3 13.7z"/><path class="st20" d="M603.7 225.4s7.4-1 10.9-.5c2.2.3 3.6 1.6 4.3 2.4.3.4.5.8.5 1.3l.4 5.8c0 .7-.2 1.3-.6 1.8-1.4 1.5-5.8 4.3-18.8 5.2-18.1 1.5 3.3-16 3.3-16z"/><path class="st20" d="M598.3 210.4c2.1 2.6 6.1 8.5 6.1 17.6 0 6.9-8 30.5-28.5 33.4-21.7 3-39.1-15.5-35.4-37.9 2.6-15.4 40.4-34.7 57.8-13.1z"/><ellipse class="st3" cx="571.8" cy="226.5" rx="31.5" ry="29.8"/><ellipse class="st9" cx="571.7" cy="228" rx="25.8" ry="24.5"/><path class="st19" d="M603.3 226.5c0-16.5-14.1-29.8-31.5-29.8s-31.5 13.3-31.5 29.8"/><path class="st19" d="M595 246.6c5.2-5.3 8.3-12.4 8.3-20.2M549.8 247.7c5.7 5.3 13.5 8.5 22 8.5 5.3 0 10.2-1.2 14.6-3.4M545.2 242.4c.4.6.8 1.2 1.3 1.8M540.3 226.5c0 4.5 1.1 8.9 3 12.7"/><path class="st20" d="M618 234.6s-5.6-3.9-14.7-.4M613.2 237.3c-2.1.6-5.7 1.4-11.6 1.8M616.1 236.1s-.3.3-1.4.7"/><path class="st3" d="M621.1 201.9c-.1-.4-.2-.8-.4-1.1-1.9-5.9-4.4-12.4-7.4-19.3-.6-1.3-1.1-2.6-1.7-3.9-.2 0-.5 0-.7.1-2.9.3-5.9.7-8.3 2.3-2.4 1.7-3.8 5.1-2.2 7.5 1.5 2.4 5.4 3.8 4.8 6.6-6.4 3.6-14.2 3.2-21.4 5-4.3 1.1-8.3 3-11.9 5.6-1.1.9-2.2 1.8-3.2 2.7-.5.4-.9.9-1.3 1.4-.6.8-1 1.6-1.1 2.5-.3 2.7 2.2 4.5 4.8 5.7.5.2.5.9 0 1.1-1.7.7-3.3 1.5-4.7 2.7-.8.7-.2 2.1 1 2h.4c1.1-.1 2.1.1 3 .4 1.5.5 2.6 1.6 2.7 2.9.2 2-2.1 3.9-5.1 4.1-.7.1-.2.9.9 1.1 2.1.4 4.3 0 6.4-.5 2.5-.6 5.2-1.5 6.6-3.6.6-.9.8-2.1.6-3.2-.3-1.5-1.2-2.8-2.7-2.9 4.6-.6 9.2-1.5 13.7-2.8l1.4-.4c1.3-.4 2.8-.9 3.9-1.7.7-.5 1.3-1.1 1.7-1.9 1-2-.4-5.2-2.7-4.8 6.5-2.5 13.3-4 19.8-6.3 1-.5 2-.9 3.1-1.3z"/><path class="st5" d="M571.6 115.4c-6 5.4-12.9 9.9-19.9 14-36.4 21.5-77.5 34.4-119.4 40.7-41.8 6.3-84.4 6.1-126.6 2.6-8.3-.7-16.7-1.5-24.3-4.9-6.4-2.8-12.3-7.8-15-14.2 9.1-10.4 17.6-20.9 27.1-30.8 2.3-2.4 4.6-4.7 6.9-7 2-1.9 4-3.8 6.1-5.6 2.4-2.1 4.9-4.2 7.5-6.2 3.5-2.8 7.3-5.4 11.3-7.9 1-.6 1.9-1.2 2.9-1.8 99.7-62 173.1-41.7 222.1 0 3.7 3.1 7.3 6.4 10.7 9.8 2.1 2 4.1 4.1 6 6.2.2.2.4.4.6.7 1.4 1.4 2.7 2.9 4 4.4z"/><path class="st20" d="M575.6 105.4 240.1 107l5.1-7.6c2.4-3.7 6.5-5.9 10.9-5.9h303.6c4 0 7.7 1.8 10.2 4.9l5.7 7z"/><path d="M413.7 242.4h-18.4c-18.9 0-34.2-15.3-34.2-34.2v-18.4c0-18.9 15.3-34.2 34.2-34.2h18.4c18.9 0 34.2 15.3 34.2 34.2v18.4c-.1 18.9-15.4 34.2-34.2 34.2z" style="fill:#757575;stroke:#1a2e35;stroke-linecap:round;stroke-linejoin:round;stroke-miterlimit:10"/><path d="M376.9 206.4v12.3c0 3.9 3.1 7 7 7h42.3c3.8 0 7-3.1 7-7 .1-5.5.3-12.4.3-12.4h-56.6z" style="fill:#999;stroke:#1a2e35;stroke-linecap:round;stroke-linejoin:round;stroke-miterlimit:10"/><path class="st23" d="M531.6 210.5H284.4c-2.6 0-5-1.6-5.9-4l-38.1-97.9c-1-2.6.9-5.3 3.6-5.3h328c2.7 0 4.6 2.8 3.6 5.3l-38.1 97.9c-1 2.4-3.3 4-5.9 4z"/><path class="st9" d="M533.4 202H282l-34.6-92.5h320.5zM377.2 210.4h56.1v3.8h-56.1z"/><path class="st1" d="M496.7 198H319.1c-1 0-1.9-.4-2.1-1l-25.3-80.2c-.3-.9.5-1.6 1.8-1.6h228.7c1.3 0 2 .7 1.8 1.6L498.8 197c-.2.6-1.1 1-2.1 1z"/><path class="st9" d="M496 196.2H319.8l-21.5-70.5h219.2z"/><path class="st3" d="M345.1 143.2h-33.4c-.8 0-1.4.4-1.2 1 .2.5.9 1 1.8 1h33.2c.8 0 1.4-.4 1.3-1-.2-.6-.9-1-1.7-1zM346.2 149.3h-28.4c-.8 0-1.3.4-1.2 1 .1.5.9 1 1.7 1h28.2c.8 0 1.4-.4 1.3-1-.1-.6-.8-1-1.6-1z"/><path class="st11" d="M347.3 155.1h-32.2c-.8 0-1.3.4-1.2.9.1.5.9.9 1.7.9h32c.8 0 1.4-.4 1.3-.9-.1-.4-.8-.9-1.6-.9z"/><path class="st3" d="M348.3 160.8h-18.9c-.8 0-1.3.4-1.2.9.1.5.8.9 1.6.9h18.8c.8 0 1.3-.4 1.2-.9 0-.5-.7-.9-1.5-.9zM349.3 166.3h-31.1c-.8 0-1.3.4-1.1.9.1.5.9.9 1.6.9h30.9c.8 0 1.3-.4 1.2-.9 0-.5-.7-.9-1.5-.9zM350.3 171.6h-25.1c-.8 0-1.3.4-1.1.8.1.5.8.8 1.6.8h25c.8 0 1.3-.4 1.2-.8-.2-.4-.9-.8-1.6-.8zM351.2 176.7h-24.7c-.7 0-1.2.4-1.1.8.1.4.8.8 1.6.8h24.6c.7 0 1.3-.4 1.2-.8-.2-.4-.8-.8-1.6-.8zM352.1 181.7h-27c-.7 0-1.2.4-1.1.8.1.4.8.8 1.5.8h26.8c.7 0 1.3-.3 1.2-.8 0-.4-.6-.8-1.4-.8z"/><path class="st11" d="M353 186.5h-17.4c-.7 0-1.2.3-1.1.8.1.4.8.8 1.5.8h17.3c.7 0 1.2-.3 1.2-.8-.1-.4-.8-.8-1.5-.8zM343.9 136.9H319c-.8 0-1.4.5-1.3 1 .1.6.9 1 1.8 1h24.7c.8 0 1.4-.5 1.3-1 0-.6-.7-1-1.6-1z"/><path class="st3" d="M342.7 130.3h-34.6c-.9 0-1.4.5-1.2 1.1.2.6 1 1.1 1.8 1.1h34.4c.8 0 1.5-.5 1.3-1.1-.1-.6-.8-1.1-1.7-1.1zM353.9 191.2h-28.7c-.7 0-1.2.3-1.1.7.1.4.8.7 1.5.7h28.6c.7 0 1.2-.3 1.1-.7-.1-.4-.7-.7-1.4-.7z"/><path class="st11" d="M356.8 145.4h6.5l-.4-2.5h-6.5zM357.7 151.4h6.4l-.4-2.4h-6.4zM358.6 157.2h6.2l-.3-2.3h-6.3zM359.4 162.8h6.2l-.3-2.2h-6.2zM360.2 168.2h6.1l-.3-2.1h-6.1zM361 173.5h6l-.3-2.1h-6zM361.8 178.6h5.8l-.2-2.1h-5.9zM362.5 183.5h5.8l-.3-2h-5.8zM363.2 188.2h5.7l-.3-1.9h-5.7zM355.9 139.2h6.5l-.3-2.6h-6.6zM354.9 132.7h6.7l-.3-2.7h-6.8zM363.9 192.8h5.6l-.3-1.8h-5.6z"/><path class="st3" d="M398 182.5c0-.4.6-.8 1.3-.8h95.8c.7 0 1.2.4 1.1.8-.1.4-.8.8-1.5.8h-95.3c-.8 0-1.4-.4-1.4-.8zM496.1 178.4H443c-.7 0-1.3-.4-1.3-.8s.7-.8 1.4-.8h53.3c.7 0 1.2.4 1.1.8 0 .4-.7.8-1.4.8z"/><path class="st11" d="M430.5 178.4H414c-.7 0-1.3-.4-1.3-.8s.6-.8 1.4-.8h16.6c.7 0 1.3.4 1.3.8-.2.4-.8.8-1.5.8z"/><path class="st3" d="M464.9 173.3h-74.8c-.8 0-1.4-.4-1.4-.8 0-.5.6-.8 1.3-.8h75.2c.8 0 1.3.4 1.2.8-.1.4-.7.8-1.5.8z"/><path class="st11" d="M374.4 171.6h5.3c.8 0 1.4.4 1.4.8 0 .5-.5.8-1.3.8h-5.3c-.8 0-1.4-.4-1.5-.8.1-.4.7-.8 1.4-.8z"/><path class="st3" d="M475.7 167.2c-.1.5-.8.9-1.6.9h-70.5c-.8 0-1.4-.4-1.4-.9s.6-.9 1.4-.9h70.9c.8 0 1.3.4 1.2.9zM373.8 166.3h20c.8 0 1.4.4 1.4.9s-.6.9-1.3.9H374c-.8 0-1.4-.4-1.5-.9 0-.5.6-.9 1.3-.9zM373.3 160.8h76.9c.8 0 1.4.4 1.3.9-.1.5-.7.9-1.5.9h-76.5c-.8 0-1.5-.4-1.5-.9-.1-.5.5-.9 1.3-.9zM423.2 157c-.8 0-1.4-.4-1.4-.9s.7-.9 1.5-.9h40.6c.8 0 1.4.4 1.3.9-.1.5-.8.9-1.6.9h-40.4zM372.7 155.1h35.1c.8 0 1.4.4 1.4.9s-.6.9-1.4.9h-34.9c-.8 0-1.5-.4-1.5-.9-.1-.4.5-.9 1.3-.9zM503.9 151.2h-96.7c-.8 0-1.5-.4-1.5-1 0-.5.6-1 1.5-1h97.3c.8 0 1.3.4 1.2 1-.2.6-1 1-1.8 1zM505.6 145.2h-85.1c-.8 0-1.5-.4-1.5-1 0-.5.7-1 1.5-1h85.6c.8 0 1.4.4 1.2 1-.1.5-.9 1-1.7 1z"/><path class="st11" d="M507.4 138.9h-17.8c-.8 0-1.4-.5-1.3-1 .1-.6.9-1 1.8-1H508c.8 0 1.4.5 1.2 1-.1.6-.9 1-1.8 1z"/><path class="st3" d="M477.1 138.9h-65.4c-.8 0-1.5-.5-1.5-1 0-.6.7-1 1.5-1h65.8c.8 0 1.4.5 1.3 1-.1.6-.8 1-1.7 1zM376 186.5h60.4c.7 0 1.3.3 1.2.8 0 .4-.7.8-1.4.8h-60.1c-.7 0-1.3-.3-1.4-.8 0-.4.6-.8 1.3-.8zM376.5 191.2h92.8c.7 0 1.2.3 1.1.7-.1.4-.7.7-1.4.7h-92.4c-.7 0-1.3-.3-1.4-.7.1-.4.6-.7 1.3-.7zM473.9 132.4h-47.3c-.8 0-1.5-.5-1.5-1.1 0-.6.7-1.1 1.6-1.1h47.5c.9 0 1.5.5 1.3 1.1 0 .7-.8 1.1-1.6 1.1z"/><path class="st11" d="M413.2 132.4h-43c-.8 0-1.6-.5-1.7-1.1-.1-.6.6-1.1 1.4-1.1h43.2c.9 0 1.5.5 1.5 1.1.2.7-.5 1.1-1.4 1.1zM449.8 186.5c.7 0 1.3.3 1.2.8-.1.4-.7.8-1.4.8h-4.7c-.7 0-1.3-.3-1.2-.8.1-.4.7-.8 1.4-.8h4.7zM392.5 182.5c0 .4-.6.8-1.3.8h-6.4c-.7 0-1.3-.3-1.4-.8 0-.4.5-.8 1.3-.8h6.4c.8 0 1.4.4 1.4.8zM469.3 161.7c-.1.5-.8.9-1.6.9h-7.4c-.8 0-1.3-.4-1.3-.9.1-.5.8-.9 1.6-.9h7.5c.7 0 1.3.4 1.2.9zM492.5 166.3c.8 0 1.3.4 1.2.9-.1.5-.9.9-1.6.9h-5.9c-.8 0-1.3-.4-1.2-.9.1-.5.8-.9 1.6-.9h5.9zM395.5 151.2c-.8 0-1.5-.4-1.5-1 0-.5.6-1 1.4-1h6.3c.8 0 1.5.4 1.5 1 0 .5-.6 1-1.4 1h-6.3z"/><path class="st3" d="M309.5 120.4c.5 1.6-.5 3-2.1 3s-3.4-1.3-3.9-3 .4-3 2.1-3c1.7 0 3.5 1.3 3.9 3zM317.7 120.4c.4 1.6-.6 2.9-2.2 2.9s-3.4-1.3-3.8-2.9c-.5-1.7.5-3 2.2-3 1.6 0 3.3 1.4 3.8 3zM325.9 120.4c.4 1.6-.6 3-2.3 3-1.6 0-3.3-1.3-3.7-3-.4-1.7.6-3 2.3-3 1.6 0 3.3 1.3 3.7 3z"/><path class="st24" d="m247.4 109.5 26.9 72 32.5-72zM292.8 202l54-92.5h56.4L323.8 202zM427.5 109l-84 93h12.9l87.1-92.5zM444.1 202l92.4-92.5h13.1L454.3 202z"/><path class="st20" d="M318.9 242.1h-21.1c-2.7 0-5 2.2-5 5v10.3c0 2.7 2.2 5 5 5h5.5l4.2 9.5 5.9-9.5h5.5c2.7 0 5-2.2 5-5v-10.3c-.1-2.8-2.3-5-5-5z"/><path class="st9" d="M305.4 248c0-.5.4-1 1-1s1 .4 1 .9c0 .6-.4 1-1 1s-1-.4-1-.9zm.2 2.1h1.6v6.9h-1.6v-6.9zM311.1 249.7v.4h1.9v1.3h-1.8v5.5h-1.6v-5.5h-1.1v-1.3h1.1v-.4c0-1.4.9-2.4 2.5-2.4.6 0 1.1.1 1.5.4l-.4 1.2c-.2-.2-.6-.3-.9-.3-.9 0-1.2.4-1.2 1.1z"/><path class="st20" d="M383.1 243.6H362c-2.7 0-5 2.2-5 5v10.3c0 2.7 2.2 5 5 5h5.5l4.2 9.5 5.9-9.5h5.5c2.7 0 5-2.2 5-5v-10.3c0-2.8-2.3-5-5-5z"/><path class="st9" d="M366.4 255.5H361c.2 1 1 1.6 2.2 1.6.8 0 1.4-.2 1.9-.7l.9 1c-.6.7-1.6 1.1-2.8 1.1-2.3 0-3.8-1.5-3.8-3.5s1.5-3.5 3.5-3.5 3.5 1.4 3.5 3.5c.1.1 0 .3 0 .5zm-5.4-1.1h3.9c-.1-1-.9-1.7-1.9-1.7-1.1 0-1.8.7-2 1.7zM368 248.8h1.6v9.5H368v-9.5zM370.9 257.7l.6-1.2c.6.4 1.5.7 2.4.7 1 0 1.4-.3 1.4-.8 0-1.3-4.2-.1-4.2-2.8 0-1.3 1.2-2.1 3-2.1.9 0 2 .2 2.6.6l-.6 1.2c-.7-.4-1.3-.5-2-.5-1 0-1.4.3-1.4.8 0 1.4 4.2.2 4.2 2.8 0 1.3-1.2 2.1-3.1 2.1-1.1 0-2.3-.4-2.9-.8zM384.7 255.5h-5.4c.2 1 1 1.6 2.2 1.6.8 0 1.4-.2 1.9-.7l.9 1c-.6.7-1.6 1.1-2.8 1.1-2.3 0-3.8-1.5-3.8-3.5s1.5-3.5 3.5-3.5 3.5 1.4 3.5 3.5c.1.1.1.3 0 .5zm-5.4-1.1h3.9c-.1-1-.9-1.7-1.9-1.7-1 0-1.8.7-2 1.7z"/><path class="st20" d="M445.4 242.9h-21.1c-2.7 0-5 2.2-5 5v10.3c0 2.7 2.2 5 5 5h5.5l4.2 9.5 5.9-9.5h5.5c2.7 0 5-2.2 5-5v-10.3c-.1-2.7-2.3-5-5-5z"/><path class="st9" d="M429.1 250.5v.4h1.9v1.3h-1.8v5.5h-1.6v-5.5h-1.1V251h1.1v-.4c0-1.4.9-2.4 2.5-2.4.6 0 1.1.1 1.5.4l-.5 1.2c-.2-.2-.6-.3-.9-.3-.8-.1-1.1.3-1.1 1zM431.4 254.3c0-2.1 1.5-3.5 3.6-3.5s3.7 1.5 3.7 3.5c0 2.1-1.5 3.5-3.7 3.5-2.1.1-3.6-1.4-3.6-3.5zm5.7 0c0-1.3-.9-2.1-2-2.1-1.2 0-2 .8-2 2.1s.9 2.1 2 2.1c1.1.1 2-.8 2-2.1zM444.2 250.8v1.5h-.4c-1.2 0-2 .7-2 2.1v3.3h-1.6v-6.9h1.5v1c.5-.6 1.4-1 2.5-1z"/><path class="st20" d="M506.7 242.1h-21.1c-2.7 0-5 2.2-5 5v10.3c0 2.7 2.2 5 5 5h5.5l4.2 9.5 5.9-9.5h5.5c2.7 0 5-2.2 5-5v-10.3c0-2.8-2.2-5-5-5z"/><path class="st9" d="M493.4 249.7h5.9v1.3h-5.9v-1.3zm0 3.2h5.9v1.3h-5.9v-1.3z"/><path class="st20" d="M351 230.2h-21.1c-2.7 0-5 2.2-5 5v10.3c0 2.7 2.2 5 5 5h5.5l4.2 9.5 5.9-9.5h5.5c2.7 0 5-2.2 5-5v-10.3c0-2.7-2.2-5-5-5z"/><path class="st9" d="M335.5 234.5h3.1v1.3h-1.5v9.5h1.5v1.3h-3.1v-12.1zM342.6 246.5v-1.3h1.5v-9.5h-1.5v-1.3h3.1v12h-3.1z"/><path class="st20" d="M413.8 229.2h-21.1c-2.7 0-5 2.2-5 5v10.3c0 2.7 2.2 5 5 5h5.5l4.2 9.5 5.9-9.5h5.5c2.7 0 5-2.2 5-5v-10.3c-.1-2.8-2.3-5-5-5z"/><path class="st9" d="M398.9 239.4c.5.2.8.5.8 1.3v2.4c0 .6.3 1 1 1h.3v1.3h-.6c-1.5 0-2.2-.7-2.2-2.1v-2.6c0-.4-.2-.6-.6-.6h-.4v-1.3h.4c.4 0 .6-.2.6-.6v-2.6c0-1.4.7-2.1 2.2-2.1h.6v1.3h-.3c-.6 0-1 .4-1 1v2.4c0 .7-.3 1.1-.8 1.2zM408.7 238.8v1.3h-.4c-.3 0-.6.2-.6.6v2.6c0 1.4-.7 2.1-2.2 2.1h-.6v-1.3h.3c.7 0 1-.4 1-1v-2.4c0-.8.2-1.1.7-1.3-.5-.2-.7-.5-.7-1.3v-2.4c0-.6-.3-1-1-1h-.3v-1.3h.6c1.5 0 2.2.7 2.2 2.1v2.6c0 .4.2.6.6.6h.4z"/><path class="st20" d="M475.8 227.1h-21.1c-2.7 0-5 2.2-5 5v10.3c0 2.7 2.2 5 5 5h5.5l4.2 9.5 5.9-9.5h5.5c2.7 0 5-2.2 5-5v-10.3c0-2.8-2.2-5-5-5z"/><path class="st9" d="M464.4 234.7c0-.6.5-1.1 1.1-1.1.6 0 1.1.4 1.1 1.1 0 .6-.5 1.1-1.1 1.1-.6 0-1.1-.5-1.1-1.1zm2.1 4.9c0 .3-.1.5-.3 1.1l-.7 1.8h-1l.5-2c-.4-.2-.6-.5-.6-1 0-.6.4-1.1 1-1.1.7.1 1.1.6 1.1 1.2z"/><path class="st20" d="M393.3 406.5h21.1c2.7 0 5-2.2 5-5v-10.3c0-2.7-2.2-5-5-5h-5.5l-1.6-9.5-8.5 9.5h-5.5c-2.7 0-5 2.2-5 5v10.3c.1 2.8 2.3 5 5 5z"/><path class="st9" d="m400.7 394.3-4.4 1.7 4.4 1.7v1.3l-5.9-2.3v-1.4l5.9-2.3v1.3zM405.4 389.7h1.4l-4.2 12.1h-1.4l4.2-12.1zM413.1 395.3v1.4l-5.9 2.3v-1.3l4.4-1.7-4.4-1.7V393l5.9 2.3z"/><path class="st20" d="M259.2 331.8h21.1c2.7 0 5-2.2 5-5v-10.3c0-2.7-2.2-5-5-5h-5.5l1.2-9.5-11.3 9.5h-5.5c-2.7 0-5 2.2-5 5v10.3c.1 2.8 2.3 5 5 5z"/><path class="st9" d="M265.5 325.3c0-.6.4-1 1-1s1 .4 1 1-.4 1-1 1-1-.5-1-1zm.1-8.1h1.9l-.3 6h-1.3l-.3-6zM269.1 319.5h5.9v1.3h-5.9v-1.3zm0 3.1h5.9v1.3h-5.9v-1.3z"/><defs><path id="XMLID_4_" d="M597 320.2c0 4.1-.3 8.1-1 11.9-2.9 17.3-12 29.9-22.8 29.9-1 0-1.9-.1-2.9-.3-11.7-2.5-20.9-20.1-20.9-41.5 0-23.1 10.6-31.2 23.7-31.2 13.3-.1 23.9 8.1 23.9 31.2z"/></defs><use xlink:href="#XMLID_4_" style="overflow:visible;fill:#fff"/><clipPath id="XMLID_8_"><use xlink:href="#XMLID_4_" style="overflow:visible"/></clipPath><g style="clip-path:url(#XMLID_8_)"><path class="st1" d="M588.4 320.4c.9 12.4-1.2 24.8-4.8 36.7 8.9-7.3 13.1-18.9 16.8-29.8 2.7-8 5.4-16.1 4.9-24.5-.5-8.4-5-17.1-12.8-20-3.8-1.4-8.3-1.3-12.1.2-6.6 2.6-3 4.8-.2 9.5 4.9 8.4 7.5 18.2 8.2 27.9z"/><path class="st11" d="M588.4 320.4c.9 12.4-1.2 24.8-4.8 36.7 8.9-7.3 13.1-18.9 16.8-29.8 2.7-8 5.4-16.1 4.9-24.5-.5-8.4-5-17.1-12.8-20-3.8-1.4-8.3-1.3-12.1.2-6.6 2.6-3 4.8-.2 9.5 4.9 8.4 7.5 18.2 8.2 27.9z"/></g><use xlink:href="#XMLID_4_" style="overflow:visible;fill:none;stroke:#1a2e35;stroke-miterlimit:10"/><path class="st6" d="M586 341.4c-1.6 5.3-4.2 10.3-7.8 14.6"/><path class="st14" d="M586.8 338.5c-.1.6-.3 1.1-.4 1.7"/><path class="st6" d="M586.7 320.1c1.3 5.3 1.4 10.9.5 16.3"/><path class="st14" d="M549.6 320.2s27-10.7 47.5 0"/><path class="st6" d="M573.3 288.9s2.7 10 3 26.3"/><path class="st23" d="M577 301.1c.3 3.1-.2 5.8-1.2 5.9-1 .2-2.1-2.2-2.5-5.3-.3-3.1.2-5.8 1.2-5.9 1.1-.2 2.2 2.2 2.5 5.3z"/><path class="st14" d="M562.6 370H531c-3.9 0-7.2-2.9-7.7-6.7-.1-.3-.1-.7-.1-1.1v-74.6c0-.4 0-.7.1-1.1.5-3.8 3.8-6.7 7.7-6.7h89.7c1.4 0 2.6.4 3.7 1"/></g></svg>