<svg version="1.1" id="Calque_1" xmlns="http://www.w3.org/2000/svg" xmlns:xlink="http://www.w3.org/1999/xlink" x="0" y="0" viewBox="0 0 800.2 498.1" style="enable-background:new 0 0 800.2 498.1" xml:space="preserve"><style>.st1{fill:none;stroke:#1a2e35;stroke-linecap:round;stroke-linejoin:round;stroke-miterlimit:10}.st2{fill:#fff}.st3{fill:#5ae4a7}.st3,.st4{opacity:.6}.st4,.st5{fill:#f4c031}.st9{fill:#fff;stroke:#1a2e35;stroke-linecap:round;stroke-linejoin:round;stroke-miterlimit:10}.st11{fill:#1a2e35}.st15{opacity:.5;fill:#f4c031}.st17{fill:none;stroke:#1a2e35;stroke-miterlimit:10}.st19{opacity:.4;fill:#f4c031}</style><path style="fill:#fff0c0" d="M0 .5h800.2v497.6H0z"/><path class="st1" d="M457.1 175.4c-1.4 2.6-2.9 5.1-4.6 7.5-9.1 12.7-22.3 21.1-36.8 24.5-7.2 1.7-14.7 2.1-22.1 1.2-7.4-.9-14.7-3.1-21.6-6.8-1.4-.7-2.7-1.5-4.1-2.3-1.3-.8-2.6-1.7-3.8-2.6-1.5-1.1-2.9-2.2-4.3-3.4 0 0 0 0 0 0-.1-.1-.2-.1-.2-.2 0 0 0 0 0 0-8-7.1-13.9-15.9-17.4-25.6-1.5-4-2.5-8.1-3.1-12.3-1.9-12.8.1-26.4 6.6-38.7 9.6-18.3 27-29.9 45.9-32.9 13-2.1 26.8-.1 39.3 6.5 11.9 6.2 20.9 15.7 26.6 26.8 9 17.6 9.6 39.4-.4 58.3z"/><path class="st1" d="M457.3 117c-.7.6-1.8.8-3.5.2-6.3-1.9-9.5 5.1-8.4 5.2 1.1.1 1.9 3.2-.4 4.8-2.3 1.5-7.5 1-7.2 2.6.4 1.6 2.9 5.5 2.9 5.5s2.3-1.1 3 .3c.6 1.4 1.4 5-.3 5.7-1.7.7-1.3 2.5-1.3 2.5l-5.1-.3-.8 3.7-3.1 2.6-1.7-.9s-1.5-3.8-2.9-1.5l-1.4 2.3-.9 2.1s3.6.8 4.5 2.4l.9 1.6 7.9 2.2.6 2.3 1.5.8.4 3.9 2.9 1.5 2.9.2 3.6-5s1.6 3.1 1.9 4.3c.4 1.3-.7 4.5-.7 4.5s-1.1 2.2-2.6 3c-1.4.7-3.2-1.2-3 1.2l.1 2.4-.4 2.7 2.2 1.2 2.1 1.1 1.2 1M338.9 155.3l.9.2 4-4.4 3.6-1.5s1.5.8 2.6 1.4c1.1.6 2.1-2.1 2.1-2.1l-.7-.6c-.7-.6.3-4.3.3-4.3s4.4.6 6 .4c1.6-.2 2.3-.1 3-1.5.7-1.3.2-1.6.2-1.6s1.2-3.5 1.2-5.2c0-1.7 2.6 1.4 2.6 1.4l1.3-2.4 2.8-2.2 3.7-2.6s5.4-1.5 5.8-.4c.4 1.2 2.6 2.1 2.6 2.1l-.9 1.7s-1.2 3.6-2.3 4.4c-1.1.8.5 6.3.5 6.3s-2.1 2-2.8 3.3c-.7 1.3-1.4 1.3-1.4 1.3l-3.5-.5s-4-2.8-5.3-3.5c0 0-2.3 2.5-2.1 4 .2 1.5-.8 1.6-.8 1.6l3.7 3.3.6 2.1 2.2 2.9-.7 1.3-1.3 2.5.6 2.8 2.4 3.2 1.3 2.9 1.5 4.7.5 2.6 4.3 1.9 1.9-1 3.7-2 1.7 3.5.7 1.7-3.1 2.8 1.1 2.3.4 2.6-.3 3.4-.6 2.2 2.6 1.4 4.6-.7-.2-3.5s2.8-1.7 4.7-2.2c1.9-.6 1.7-.5 4.1-1.3 2.4-.7 1.7-.5 2.8-.9 1.1-.4 2.3-.8 2.3-.8l.1-3.6 1.9-6.6 1.2.8c1.2.8 2.9-2 2.9-2l.8-5-2.3-1.2s-2.1-.5-4.2-.5l-3.3-1.7-2.8-4.9s-1.3-1.4-2.3-3.3l1.3-2.4 1.6-3 1.6.9 1.5.8 1.6.8 2.6-1.7 1.5-4.1s.7-.6 2-1.8c1.3-1.2 2.2 1 2.2 1l2.1-2.7c2.1-2.7.4-1.4-.7-2.8s-2.3-1.2-2.3-1.2l-3.9-4.7-3.1 1.1-.4 1.5c-.4 1.5 0 0-4.5-1.8l-1.5-4.3.9-1 .2-4-4.6-2.3c-2-1.1-2.4-3.8-2.4-3.8-.3-1.8.9-4.3.9-4.3l-1-2.8-3.7-7.2.6-3.2 2.1-1.4.8-4.3-3.9-3.7 1.5-2.9 1.1-2.1 1.3-2.4 1-4.9s-.2-.9-.5-1.9"/><path class="st1" d="M359.8 193.5c-.1-.1-.2-.2-.3-.2 0 0 0 0 0 0l1.1-2.1-.4-4-1.5-.8s1.8-1.8 1.7-3.2c-.1-1.4 1.1-2.1 1.1-2.1l-.5-2.6-.8-.4c-.8-.4-.3-2.6-.3-2.6l-3.4.7-.9 3.6-3.5.9s-1.7-1.2-1.7-2.9c.1-1.7.7-1.3.7-1.3h3.2l2-3.8-.4-1.8-1.4-.8M354.5 169.9h0c.2.1-.9-4.5-.9-4.5s-1.3-3.4-2.7-4c-1.4-.6-4.6 1.5-4.6 1.5l-3.5.5-.8 4.2M368.7 196.9l-.8 2.6c-1.3-.8-2.6-1.7-3.8-2.6l3.9-3.9-.3-4.3s-.7-1.6.7-1.3c1.4.3 2.3-.2 3.2-1.1.8-.9.7-1.3 2.8-.2 2.1 1.1 2.3 1.9 2.6 2.7.3.8-3.7 6.9-3.7 6.9l1.4.7s-.8 1.9.6 2.3l-6.6-1.8zM415.7 207.4c-7.2 1.7-14.7 2.1-22.1 1.2l.8-2.8s-.7-1.2 2.2-.9c2.9.3 5.2.6 5.2.6l2.3-4.4h4.1l1.3.7 1.2 1.7 2.5 2.4c-.2-.1 1.3.7 2.5 1.5zM413.6 165.3l2.5-.8 2.2 2.2s4.3.6 2.6 2.4c-1.7 1.9-4.8 1.8-4.8 1.8l-1.1 2.2-2-2.4-1-2 .8-1.4.8-2zM417.2 156s-.9 1.1-1.1 2.1l-.2.9-4-2.1 2.2-4.1 3.1 3.2zM550.7 69.1c0 3.8-3.1 6.9-6.9 6.9-3.8 0-6.9-3.1-6.9-6.9 0-3.8 3.1-6.9 6.9-6.9 3.8 0 6.9 3.1 6.9 6.9zM511.6 178.1c0 2.4-2 4.4-4.4 4.4-2.4 0-4.4-2-4.4-4.4 0-2.4 2-4.4 4.4-4.4 2.4.1 4.4 2 4.4 4.4zM386 39.6c0 2.4-2 4.4-4.4 4.4-2.4 0-4.4-2-4.4-4.4 0-2.4 2-4.4 4.4-4.4 2.5 0 4.4 2 4.4 4.4z"/><circle class="st1" cx="613.8" cy="171.7" r="10.9"/><circle class="st1" cx="240.3" cy="63.8" r="6.7"/><circle class="st1" cx="205.6" cy="199" r="11.7"/><circle class="st1" cx="309.3" cy="119.4" r="3.4"/><path class="st1" d="M385.2 69.2c.3 2.3.5 4.6.8 6.9M382.7 48l2.1 17.1M470.1 105.8c-1.8.8-3.7 1.6-5.6 2.4M508.8 86.5c-11.2 5.8-22.4 11.7-33.8 17M525.4 78.1c-4.2 2.1-8.3 4.2-12.5 6.3M533 74.5c-1.2.5-2.3 1.1-3.5 1.7M483.2 157.4l-12.3-1.5M542.9 164c-18.3-2-36.6-4.1-54.9-6.1M598.3 169.9c-16.9-1.8-33.8-3.6-50.6-5.4M489.9 172.1c-7.4-2.3-15-4-22.2-6.9M499.7 175.7c-1.7-.7-3.4-1.4-5.1-2M316.3 121.3c6.5 1.7 12.9 3.5 19.4 5.2M307.4 99.3c10.4 5.8 20.8 11.5 31.5 16.7M259.9 73.8c14.8 7.2 29.2 15.3 43.5 23.3M251.4 69.7l3.6 1.8M328.6 172.6c1.6-.4 3.2-.7 4.7-1.1M253.3 188.6c23.5-5.2 47-10.4 70.6-15M222 195.5c9.1-1.9 18.1-3.9 27.2-5.9"/><path class="st2" d="M608.6 280.3v-2.6H467.4c-2.7 0-5.1 1.1-6.8 2.8-1.7 1.7-2.8 4.2-2.8 6.8 0 5.3 4.3 9.7 9.7 9.7h141.1v-2.6h-3.4v-14.1h3.4z"/><path class="st3" d="M545.5 280.3h63.1v-2.6H467.4c-2.7 0-5.1 1.1-6.8 2.8-1.7 1.7-2.8 4.2-2.8 6.8 0 5.3 4.3 9.7 9.7 9.7h141.1v-2.6h-63.1c-3.9 0-7-3.1-7-7 0-1.9.8-3.7 2.1-5 1.2-1.3 2.9-2.1 4.9-2.1z"/><path class="st4" d="M540.5 282.4c-1.3 1.3-2.1 3-2.1 5 0 3.9 3.1 7 7 7h63.2v2.6h-63.1c-5.3 0-9.7-4.3-9.7-9.7 0-2.7 1.1-5.1 2.8-6.8 1.7-1.7 4.2-2.8 6.8-2.8h63.1v2.6h-63.2c-1.8 0-3.5.8-4.8 2.1z"/><path class="st1" d="M540.5 282.4c-1.3 1.3-2.1 3-2.1 5 0 3.9 3.1 7 7 7h63.2v2.6h-63.1c-5.3 0-9.7-4.3-9.7-9.7 0-2.7 1.1-5.1 2.8-6.8 1.7-1.7 4.2-2.8 6.8-2.8h63.1v2.6h-63.2c-1.8 0-3.5.8-4.8 2.1zM605.2 280.3v14.1M605.2 282.9h-33M569.4 282.9H566M550.1 287.4h30.3M584.2 287.4h8.1M594.7 287.4h10.5M601.6 291.3h-11.2M558.7 291.3h-2.2"/><path class="st1" d="M541.9 281.3s2.9 2.8 2.9 6c0 3.3-2.9 6-2.9 6"/><path class="st1" d="M563 297h-95.7c-5.3 0-9.7-4.3-9.7-9.7 0-2.7 1.1-5.1 2.8-6.8 1.7-1.7 4.2-2.8 6.8-2.8H563"/><path class="st2" d="M470.7 313.9v2.6H612c2.7 0 5.1-1.1 6.8-2.8 1.7-1.7 2.8-4.2 2.8-6.8 0-5.3-4.3-9.7-9.7-9.7H470.6v2.6h3.4v14.1h-3.3z"/><path class="st4" d="M586 313.9H470.7v2.6H612c2.7 0 5.1-1.1 6.8-2.8 1.7-1.7 2.8-4.2 2.8-6.8 0-5.3-4.3-9.7-9.7-9.7H470.6v2.6H586c3.9 0 7 3.1 7 7 0 1.9-.8 3.7-2.1 5-1.1 1.4-2.9 2.1-4.9 2.1z"/><path class="st5" d="M612 297.3h-26.1c5.3 0 9.7 4.3 9.7 9.7 0 2.7-1.1 5.1-2.8 6.8-1.7 1.7-4.2 2.8-6.8 2.8h26c2.7 0 5.1-1.1 6.8-2.8 1.7-1.7 2.8-4.2 2.8-6.8.1-5.4-4.3-9.7-9.6-9.7z"/><path class="st1" d="M591 311.9c1.3-1.3 2.1-3 2.1-5 0-3.9-3.1-7-7-7H470.7v-2.6h115.2c5.3 0 9.7 4.3 9.7 9.7 0 2.7-1.1 5.1-2.8 6.8-1.7 1.7-4.2 2.8-6.8 2.8H470.7V314H586c2-.1 3.8-.8 5-2.1zM474.1 313.9v-14M474.1 311.4h85.3M562.1 311.4h3.4M581.4 306.9h-43.3M534.3 306.9h-8.2M523.8 306.9h-49.7M477.8 303h50.3M572.8 303h2.2"/><path class="st1" d="M589.6 313s-2.9-2.8-2.9-6c0-3.3 2.9-6 2.9-6"/><path class="st1" d="M568.5 297.3H612c5.3 0 9.7 4.3 9.7 9.7 0 2.7-1.1 5.1-2.8 6.8-1.7 1.7-4.2 2.8-6.8 2.8h-43.5"/><path class="st2" d="M620.4 319.4v-2.6H453c-2.7 0-5.1 1.1-6.8 2.8-1.7 1.7-2.8 4.2-2.8 6.8 0 5.3 4.3 9.7 9.7 9.7h167.3v-2.6H617v-14.1h3.4z"/><path class="st3" d="M531.1 319.4H620.4v-2.6H453c-2.7 0-5.1 1.1-6.8 2.8-1.7 1.7-2.8 4.2-2.8 6.8 0 5.3 4.3 9.7 9.7 9.7h167.3v-2.6h-89.2c-3.9 0-7-3.1-7-7 0-1.9.8-3.7 2.1-5 1.1-1.3 2.9-2.1 4.8-2.1z"/><path class="st4" d="M526.2 321.5c-1.3 1.3-2.1 3-2.1 5 0 3.9 3.1 7 7 7h89.3v2.6h-89.1c-5.3 0-9.7-4.3-9.7-9.7 0-2.7 1.1-5.1 2.8-6.8 1.7-1.7 4.2-2.8 6.8-2.8h89.1v2.6H531c-1.8 0-3.6.8-4.8 2.1z"/><path class="st1" d="M526.2 321.5c-1.3 1.3-2.1 3-2.1 5 0 3.9 3.1 7 7 7h89.3v2.6h-89.1c-5.3 0-9.7-4.3-9.7-9.7 0-2.7 1.1-5.1 2.8-6.8 1.7-1.7 4.2-2.8 6.8-2.8h89.1v2.6H531c-1.8 0-3.6.8-4.8 2.1zM617 319.4v14.1M617 322h-59.2M555.1 322h-3.5M535.8 326.5h30.3M569.9 326.5H591M593.4 326.5H617M613.3 330.4h-24.2M544.4 330.4h-2.2"/><path class="st1" d="M527.5 320.4s2.9 2.8 2.9 6-2.9 6-2.9 6"/><path class="st1" d="M548.7 336.1H453c-5.3 0-9.7-4.3-9.7-9.7 0-2.7 1.1-5.1 2.8-6.8 1.7-1.7 4.2-2.8 6.8-2.8h95.7"/><defs><path id="XMLID_504_" d="M201.7 297s-13.8-2-14.6 6.2c-.7 8.2 9 26.9 23.1 24.2v-4.8s-13.7 2.6-17.4-15c-2-9.7 11-4.5 11-4.5l-2.1-6.1z"/></defs><use xlink:href="#XMLID_504_" style="overflow:visible;fill:#fff"/><clipPath id="XMLID_2_"><use xlink:href="#XMLID_504_" style="overflow:visible"/></clipPath><path d="M201.7 297s-13.8-2-14.6 6.2c-.7 8.2 9 26.9 23.1 24.2v-4.8s-13.7 2.6-17.4-15c-2-9.7 11-4.5 11-4.5l-2.1-6.1z" style="opacity:.4;clip-path:url(#XMLID_2_);fill:#f4c031"/><use xlink:href="#XMLID_504_" style="overflow:visible;fill:none;stroke:#1a2e35;stroke-linecap:round;stroke-linejoin:round;stroke-miterlimit:10"/><defs><path id="XMLID_503_" d="M243 327.4c-3.9 3.2-9.2 5.3-16.4 5.3-31 0-27.5-39.7-27.5-39.7H254c0 .1 2.1 23.6-11 34.4z"/></defs><use xlink:href="#XMLID_503_" style="overflow:visible;fill:#fff"/><clipPath id="XMLID_3_"><use xlink:href="#XMLID_503_" style="overflow:visible"/></clipPath><path d="M243 327.4c-3.9 3.2-9.2 5.3-16.4 5.3-31 0-27.5-39.7-27.5-39.7h10.1s1.2 17.4 7.5 25.9 26.1 8.5 26.3 8.5z" style="opacity:.4;clip-path:url(#XMLID_3_);fill:#f4c031"/><use xlink:href="#XMLID_503_" style="overflow:visible;fill:none;stroke:#1a2e35;stroke-linecap:round;stroke-linejoin:round;stroke-miterlimit:10"/><defs><path id="XMLID_502_" d="M249.6 336.1h-49.1l-12.2-4.5h73.4z"/></defs><use xlink:href="#XMLID_502_" style="overflow:visible;fill:#fff"/><clipPath id="XMLID_4_"><use xlink:href="#XMLID_502_" style="overflow:visible"/></clipPath><path style="opacity:.4;clip-path:url(#XMLID_4_);fill:#f4c031" d="M249.6 336.1h-49.1l-12.2-4.5h73.4z"/><use xlink:href="#XMLID_502_" style="overflow:visible;fill:none;stroke:#1a2e35;stroke-linecap:round;stroke-linejoin:round;stroke-miterlimit:10"/><path class="st9" d="M265.1 332.4H185c-.6 0-1-.5-1-1v-1.6c0-.6.5-1 1-1h80.1c.6 0 1 .5 1 1v1.6c.1.5-.4 1-1 1z"/><path class="st1" d="M224.5 248.3c-12.8 10.8 9.3 28.2 0 35.4 0 0 9.1-3.5 3.4-15.5-5.7-11.9-3.4-19.9-3.4-19.9zM169.9 336.7h460.4"/><path d="M546.9 372.3H255.6c-9.8 0-39.1-4.2-39.1-4.2H586c.1.1-29.2 4.2-39.1 4.2z" style="fill:#999;stroke:#1a2e35;stroke-linecap:round;stroke-linejoin:round;stroke-miterlimit:10"/><path class="st11" d="M546.9 357.5H255.7V183.6c0-2 1.6-3.6 3.6-3.6h284.1c2 0 3.6 1.6 3.6 3.6v173.9z"/><path d="M586.1 368.2H216.5c-1.4 0-1.6-2-.2-2.3l39.4-8.4H547l39.4 8.4c1.2.3 1 2.3-.3 2.3z" style="fill:#bfbfbf;stroke:#1a2e35;stroke-miterlimit:10"/><path class="st9" d="M258.9 187.8h284.8v157.8H258.9z"/><path class="st2" d="M407.6 352.5H395c-.8 0-1.5-.6-1.5-1.5 0-.8.6-1.5 1.5-1.5h12.6c.8 0 1.5.6 1.5 1.5-.1.8-.7 1.5-1.5 1.5zM403.4 183.7c0 1.1-.9 2.1-2.1 2.1-1.1 0-2.1-.9-2.1-2.1 0-1.1.9-2.1 2.1-2.1 1.1 0 2.1 1 2.1 2.1z"/><path class="st1" d="M563.1 362.8H239.5l17-4h289.6z"/><path d="M438.1 189s-65.5 88.8-177 76.7V189h177z" style="opacity:.15;fill:#f4c031"/><path d="M261.1 328.1s17.3-43.8 108.4-57.7c91.1-13.8 162.4-50.3 171.9-71.7v143.4H261.1v-14z" style="opacity:.3;fill:#f4c031"/><path class="st15" d="M261.1 189h280.4v5.4H261.1z"/><path class="st1" d="M261.1 194.4h280.4M265 191.6h8.1M282 191.6h7.3M298.8 191.6h7.1"/><g style="opacity:.7"><path class="st5" d="M307.7 326.5h-9c-1.2 0-2.2 1-2.2 2.2v9c0 1.2 1 2.2 2.2 2.2h9c1.2 0 2.2-1 2.2-2.2v-9c0-1.3-1-2.2-2.2-2.2zM327.3 326.5h-9c-1.2 0-2.2 1-2.2 2.2v9c0 1.2 1 2.2 2.2 2.2h9c1.2 0 2.2-1 2.2-2.2v-9c0-1.3-1-2.2-2.2-2.2zM346.9 326.5h-9c-1.2 0-2.2 1-2.2 2.2v9c0 1.2 1 2.2 2.2 2.2h9c1.2 0 2.2-1 2.2-2.2v-9c.1-1.3-.9-2.2-2.2-2.2zM366.6 326.5h-9c-1.2 0-2.2 1-2.2 2.2v9c0 1.2 1 2.2 2.2 2.2h9c1.2 0 2.2-1 2.2-2.2v-9c0-1.3-1-2.2-2.2-2.2zM386.2 326.5h-9c-1.2 0-2.2 1-2.2 2.2v9c0 1.2 1 2.2 2.2 2.2h9c1.2 0 2.2-1 2.2-2.2v-9c0-1.3-1-2.2-2.2-2.2zM405.8 326.5h-9c-1.2 0-2.2 1-2.2 2.2v9c0 1.2 1 2.2 2.2 2.2h9c1.2 0 2.2-1 2.2-2.2v-9c0-1.3-1-2.2-2.2-2.2zM425.4 326.5h-9c-1.2 0-2.2 1-2.2 2.2v9c0 1.2 1 2.2 2.2 2.2h9c1.2 0 2.2-1 2.2-2.2v-9c0-1.3-1-2.2-2.2-2.2zM445.1 326.5h-9c-1.2 0-2.2 1-2.2 2.2v9c0 1.2 1 2.2 2.2 2.2h9c1.2 0 2.2-1 2.2-2.2v-9c0-1.3-1-2.2-2.2-2.2zM464.7 326.5h-9c-1.2 0-2.2 1-2.2 2.2v9c0 1.2 1 2.2 2.2 2.2h9c1.2 0 2.2-1 2.2-2.2v-9c0-1.3-1-2.2-2.2-2.2zM484.3 326.5h-9c-1.2 0-2.2 1-2.2 2.2v9c0 1.2 1 2.2 2.2 2.2h9c1.2 0 2.2-1 2.2-2.2v-9c0-1.3-1-2.2-2.2-2.2zM503.9 326.5h-9c-1.2 0-2.2 1-2.2 2.2v9c0 1.2 1 2.2 2.2 2.2h9c1.2 0 2.2-1 2.2-2.2v-9c0-1.3-1-2.2-2.2-2.2z"/></g><path class="st15" d="M519 342.1v-5.7c0-1.2-1-2.3-2.3-2.3h-10.6v3.5c0 1.2-1 2.2-2.2 2.2h-9c-1.2 0-2.2-1-2.2-2.2v-3.5h-6.2v3.5c0 1.2-1 2.2-2.2 2.2h-9c-1.2 0-2.2-1-2.2-2.2v-3.5h-6.2v3.5c0 1.2-1 2.2-2.2 2.2h-9c-1.2 0-2.2-1-2.2-2.2v-3.5h-6.2v3.5c0 1.2-1 2.2-2.2 2.2h-9c-1.2 0-2.2-1-2.2-2.2v-3.5h-6.2v3.5c0 1.2-1 2.2-2.2 2.2h-9c-1.2 0-2.2-1-2.2-2.2v-3.5H408v3.5c0 1.2-1 2.2-2.2 2.2h-9c-1.2 0-2.2-1-2.2-2.2v-3.5h-6.2v3.5c0 1.2-1 2.2-2.2 2.2h-9c-1.2 0-2.2-1-2.2-2.2v-3.5h-6.2v3.5c0 1.2-1 2.2-2.2 2.2h-9c-1.2 0-2.2-1-2.2-2.2v-3.5h-6.2v3.5c0 1.2-1 2.2-2.2 2.2h-9c-1.2 0-2.2-1-2.2-2.2v-3.5h-6.2v3.5c0 1.2-1 2.2-2.2 2.2h-9c-1.2 0-2.2-1-2.2-2.2v-3.5H310v3.5c0 1.2-1 2.2-2.2 2.2h-9c-1.2 0-2.2-1-2.2-2.2v-3.5H286c-1.2 0-2.3 1-2.3 2.3v5.7"/><path class="st1" d="M519 342.1v-5.7c0-1.2-1-2.3-2.3-2.3h-10.6v3.5c0 1.2-1 2.2-2.2 2.2h-9c-1.2 0-2.2-1-2.2-2.2v-3.5h-6.2v3.5c0 1.2-1 2.2-2.2 2.2h-9c-1.2 0-2.2-1-2.2-2.2v-3.5h-6.2v3.5c0 1.2-1 2.2-2.2 2.2h-9c-1.2 0-2.2-1-2.2-2.2v-3.5h-6.2v3.5c0 1.2-1 2.2-2.2 2.2h-9c-1.2 0-2.2-1-2.2-2.2v-3.5h-6.2v3.5c0 1.2-1 2.2-2.2 2.2h-9c-1.2 0-2.2-1-2.2-2.2v-3.5H408v3.5c0 1.2-1 2.2-2.2 2.2h-9c-1.2 0-2.2-1-2.2-2.2v-3.5h-6.2v3.5c0 1.2-1 2.2-2.2 2.2h-9c-1.2 0-2.2-1-2.2-2.2v-3.5h-6.2v3.5c0 1.2-1 2.2-2.2 2.2h-9c-1.2 0-2.2-1-2.2-2.2v-3.5h-6.2v3.5c0 1.2-1 2.2-2.2 2.2h-9c-1.2 0-2.2-1-2.2-2.2v-3.5h-6.2v3.5c0 1.2-1 2.2-2.2 2.2h-9c-1.2 0-2.2-1-2.2-2.2v-3.5H310v3.5c0 1.2-1 2.2-2.2 2.2h-9c-1.2 0-2.2-1-2.2-2.2v-3.5H286c-1.2 0-2.3 1-2.3 2.3v5.7"/><path class="st17" d="M307.7 326.5h-9c-1.2 0-2.2 1-2.2 2.2v9c0 1.2 1 2.2 2.2 2.2h9c1.2 0 2.2-1 2.2-2.2v-9c0-1.3-1-2.2-2.2-2.2zM327.3 326.5h-9c-1.2 0-2.2 1-2.2 2.2v9c0 1.2 1 2.2 2.2 2.2h9c1.2 0 2.2-1 2.2-2.2v-9c0-1.3-1-2.2-2.2-2.2zM346.9 326.5h-9c-1.2 0-2.2 1-2.2 2.2v9c0 1.2 1 2.2 2.2 2.2h9c1.2 0 2.2-1 2.2-2.2v-9c.1-1.3-.9-2.2-2.2-2.2zM366.6 326.5h-9c-1.2 0-2.2 1-2.2 2.2v9c0 1.2 1 2.2 2.2 2.2h9c1.2 0 2.2-1 2.2-2.2v-9c0-1.3-1-2.2-2.2-2.2zM386.2 326.5h-9c-1.2 0-2.2 1-2.2 2.2v9c0 1.2 1 2.2 2.2 2.2h9c1.2 0 2.2-1 2.2-2.2v-9c0-1.3-1-2.2-2.2-2.2zM405.8 326.5h-9c-1.2 0-2.2 1-2.2 2.2v9c0 1.2 1 2.2 2.2 2.2h9c1.2 0 2.2-1 2.2-2.2v-9c0-1.3-1-2.2-2.2-2.2zM425.4 326.5h-9c-1.2 0-2.2 1-2.2 2.2v9c0 1.2 1 2.2 2.2 2.2h9c1.2 0 2.2-1 2.2-2.2v-9c0-1.3-1-2.2-2.2-2.2zM445.1 326.5h-9c-1.2 0-2.2 1-2.2 2.2v9c0 1.2 1 2.2 2.2 2.2h9c1.2 0 2.2-1 2.2-2.2v-9c0-1.3-1-2.2-2.2-2.2zM464.7 326.5h-9c-1.2 0-2.2 1-2.2 2.2v9c0 1.2 1 2.2 2.2 2.2h9c1.2 0 2.2-1 2.2-2.2v-9c0-1.3-1-2.2-2.2-2.2zM484.3 326.5h-9c-1.2 0-2.2 1-2.2 2.2v9c0 1.2 1 2.2 2.2 2.2h9c1.2 0 2.2-1 2.2-2.2v-9c0-1.3-1-2.2-2.2-2.2zM503.9 326.5h-9c-1.2 0-2.2 1-2.2 2.2v9c0 1.2 1 2.2 2.2 2.2h9c1.2 0 2.2-1 2.2-2.2v-9c0-1.3-1-2.2-2.2-2.2z"/><path class="st2" d="M473.3 266.1h-144c-5.6 0-10.1-4.5-10.1-10.1s4.5-10.1 10.1-10.1h144.1c5.6 0 10.1 4.5 10.1 10.1-.1 5.6-4.6 10.1-10.2 10.1z"/><path class="st1" d="M473.3 266.1h-144c-5.6 0-10.1-4.5-10.1-10.1h0c0-5.6 4.5-10.1 10.1-10.1h144.1c5.6 0 10.1 4.5 10.1 10.1h0c-.1 5.6-4.6 10.1-10.2 10.1z"/><path d="M473.4 256c.3-.5.4-1 .4-1.6 0-.8-.3-1.6-.9-2.2-.6-.6-1.4-.9-2.2-.9-.8 0-1.6.3-2.2.9-.6.6-.9 1.4-.9 2.2 0 .8.3 1.6.9 2.2 1 1 2.6 1.2 3.8.5.2-.1.4-.3.6-.5s.4-.4.5-.6z" style="fill:none"/><path class="st11" d="m477.6 259.9-3.3-3.3c1-1.6.8-3.7-.6-5.1-.8-.8-1.8-1.2-2.9-1.2-1.1 0-2.2.4-2.9 1.2-.8.8-1.2 1.8-1.2 2.9s.4 2.1 1.2 2.9c.8.8 1.8 1.2 2.9 1.2.8 0 1.5-.2 2.1-.6l3.3 3.3c.2.2.4.3.7.3.3 0 .5-.1.7-.3.4-.3.4-.9 0-1.3zm-5.3-2.8c-1.2.7-2.8.5-3.8-.5-.6-.6-.9-1.4-.9-2.2 0-.8.3-1.6.9-2.2.6-.6 1.4-.9 2.2-.9.8 0 1.6.3 2.2.9.6.6.9 1.4.9 2.2 0 .6-.2 1.1-.4 1.6-.1.2-.3.4-.5.6s-.4.4-.6.5z"/><path class="st2" d="M387.5 391.5c-.8-3.9-1.3-5-7.7-6.6-5.2-1.3-10.6.1-12.3.6-.4.1-.6.2-.6.2s-1.6-5.4-2.7-6.8c-1.2-1.4-6.6-15.9-7.1-17.3-.2-.6-1.2-1.5-2.5-2.5-1.9-1.4-4.5-2.7-6.7-2.7h-.2c-3.8.1-17.8-.9-17.8-.9s-2.1-3.9-3.9-5.4c-1.7-1.4-8.3-3.1-10.2-2.7-.2 0-.4.1-.7.2-2.6 1.2-8.6 5.9-8.6 5.9s-.2-.3-.6-.6c-.6-.6-1.7-1.4-2.5-1.4-1.2 0-6.4-1.5-8.5-.4-.2.1-.4.3-.6.4-.9 1.1-4.9 5.4-8.7 9.1-2.7 2.7-5.2 5-6.3 5.7-2.7 1.6-7.3 2.3-10 3.1-2.7.8-11 9-11 9-7.1 1.4-32.1 2.9-48.7 3.8-8.9.5-25.4 2.8-25.4 2.8l25.9 77.5s2.1-.7 5.5-1.9c15-5.3 56.2-19.5 62.3-20.4 7.5-1.1 11.6-4.7 17.2-5.4 5.6-.6 10.6-1.5 18.9 0 8.3 1.5 20.6-4 30-6.1 9.4-2.1 13.3-9.2 15.1-12.6 1.8-3.4 4.6-5.7 9.6-8s6.8-4.8 10.2-6.9c3.2-2 8.4-5.4 8.5-8.9.2-.2.2-.5.1-.8zm-33 .1s-1.1.5-1.6-.1c-.6-.6-3.5-1.8-3.5-1.8.6-1.6-.4-3.5-1.2-5.1-.8-1.6-1.8-4.8-1.8-4.8s3.6 5.1 4.7 5.9c1.1.8 1.6.9 1.6.9s.5 3.3 1.8 5c0-.1 0 0 0 0z"/><path class="st19" d="M209.7 382.4c16.6-.9 41.6-2.4 48.7-3.8 0 0 8.3-8.2 11-9 2.7-.8 7.3-1.5 10-3.1 1.1-.7 3.7-3 6.3-5.7-3.1 4.6-7 10.2-9.4 12.3-4.4 4-5.9 0-5.9 0-5 8.9-48.3 9.4-60.7 9.3zM295 351.3c2.1-1.1 7.3.4 8.5.4.9 0 1.9.9 2.5 1.4-1.4 1.2-2.3 2.1-2.3 2.1s-2.5-1.5-5.6-3.5c-.9-.6-2.1-.6-3.1-.4zM315.1 347.8c.3-.1.5-.2.7-.2 1.9-.4 8.5 1.3 10.2 2.7 1.7 1.5 3.9 5.4 3.9 5.4s13.9.9 17.8.9h.2c1.4 5.4-5.8 7.6-5.8 7.6s-1.8-7.9-8.8-8.3c-7-.4-9.4 1.3-9.4 1.3-.1-6.5-2.5-7.4-6.7-9.2-.6-.2-1.3-.3-2.1-.2zM346.3 379.9s1 3.1 1.8 4.8c.8 1.6 1.8 3.6 1.2 5.1 0 0 2.9 1.2 3.5 1.8-2.2-1.2-6.6-3.2-6.6-3.2 1.4-3.2-2.2-14.9-2.2-14.9s5.9-1 10.4-4.7c2.7-2.2 1.4-6.4 0-9.5 1.3.9 2.3 1.9 2.5 2.5.6 1.3 6 15.8 7.1 17.3 1.1 1.4 2.7 6.8 2.7 6.8s.2-.1.6-.2c-4 2.2-9.9 5.3-13 5.9-1.3-1.6-1.9-4.9-1.9-4.9s-.5-.1-1.6-.9c-.9-.8-4.5-5.9-4.5-5.9zM383.6 390.1c1.7.6 3 1.4 4 2.4-.2 3.5-5.3 7-8.5 8.9-3.5 2.1-5.2 4.6-10.2 6.9s-7.8 4.6-9.6 8c-1.9 3.4-5.8 10.5-15.1 12.6-9.4 2.1-21.8 7.6-30 6.1-8.3-1.5-13.3-.6-18.9 0-5.6.6-9.6 4.3-17.2 5.4-6.1.9-47.3 15.1-62.3 20.4 15-16.1 63.2-31.5 70.2-30.6 7.6.9 20.6-2.2 26.1-3.3 5.5-1.1 6.5-3.4 6.5-3.4 0 1.8-2 4.2-2 4.2s1.5 1.3 3.3 2.4c1.9 1.1 25.5-4.9 29.6-8.4 4.1-3.6 9.8-10.7 12-12.3 2.1-1.6 13.9-5.1 15.6-8.3s-2.1-9.9-2.9-10.9c-1-1.2 2-2.7 9.4-.1z"/><path d="M390.3 399.8v-1 1z" style="opacity:.4;fill:#5ae4a7"/><path class="st1" d="M184.3 385.2s63.1-4.4 74.1-6.6c0 0 8.3-8.2 11-9 2.7-.8 7.3-1.5 10-3.1s13.5-13 15-14.8c1.5-1.8 7.7 0 9.1 0 1.3 0 3.1 2 3.1 2s7.3-5.8 9.3-6.2c1.9-.4 8.5 1.3 10.2 2.7 1.7 1.4 3.9 5.4 3.9 5.4s13.9 1 17.8.9c3.8-.1 8.9 3.8 9.4 5.1.6 1.3 6 15.8 7.1 17.2 1.2 1.4 2.7 6.8 2.7 6.8s6.5-2.3 12.9-.8c6.4 1.5 6.9 2.7 7.7 6.6.8 3.9-5 7.7-8.5 9.8-3.5 2.1-5.2 4.6-10.2 6.9-5 2.3-7.8 4.6-9.6 8-1.8 3.4-5.8 10.5-15.1 12.6s-21.7 7.6-30 6.1-13.3-.6-18.9 0c-5.6.6-9.6 4.3-17.2 5.4-7.5 1.1-67.8 22.3-67.8 22.3"/><path class="st1" d="M329.9 355.7c-4.1 0-7.3 2.3-7.3 2.3M338.2 358c2.6 1.2 4.5 8.6 4.5 8.6M345.3 375.5s1.4 7 2.8 9.1c1.4 2.1 1.2 4.6 1.2 4.6"/><path class="st1" d="M345.3 387.9s5.5 2.3 7.3 3.7c1.8 1.3 7.6-3.3 14.3-5.8M345.9 378.1s1.4-1.1 4.2-1.7c2.9-.6 5.3-4.9 6-7.7"/><path class="st1" d="M354.5 391.6c-1.3-1.6-2-5-2-5s-.5-.1-1.6-.9-4.7-5.9-4.7-5.9M352.5 386.6s5 .5 8-1.9M306.6 353.8s-2.2 1.7-5.8 3M295 351.3c3.2-.3 5.7 2.1 6.1 2.5M315.8 347.6s5.6 1.5 6.7 3.1c1.2 1.5 1.2 3.1 1.2 3.1M258.4 378.6s5.1 0 8.1-1.9M295.2 435s11-3.4 15.4-4.2c4.4-.8 6.6-4 6.6-4M373.4 393.5s2.8 3.7 1.9 7.5M354.5 397.2s4.5 2.6 6 9M306.6 359.1s-10.4 11.2-16.3 14.3M323.7 362.2s-10.8 11.4-15.2 13.3"/></svg>